<mxfile host="www.draw.io" modified="2020-02-16T16:28:04.407Z" agent="Mozilla/5.0 (X11; Linux x86_64) AppleWebKit/537.36 (KHTML, like Gecko) Chrome/79.0.3945.88 Safari/537.36" etag="PeYaLE3qOBIfTPXlxSXV" version="12.7.0" type="github">
  <diagram id="MvgryUSO-WaIaVxmrUyc" name="Page-1">
    <mxGraphModel dx="782" dy="423" grid="1" gridSize="19" guides="1" tooltips="1" connect="1" arrows="1" fold="1" page="0" pageScale="1" pageWidth="850" pageHeight="1100" math="0" shadow="0">
      <root>
        <mxCell id="0"/>
        <mxCell id="1" parent="0"/>
        <mxCell id="9fpFaIlWNL28QZtfQ_b3-4" value="" style="shape=image;imageAspect=0;aspect=fixed;verticalLabelPosition=bottom;verticalAlign=top;image=data:image/png,iVBORw0KGgoAAAANSUhEUgAAARgAAAC0CAMAAAB4+cOfAAAAilBMVEX///8zbuUpaeSFo+4vbOUmaOQiZuQcZOQXYuMUYeP1+P78/f/r8Pzx9f2ovfLw9P3m7PtvlOtbh+mzxfSXsPDR3PhFeedLfefE0vbY4fmftvFTguje5vq5yvWJpu5mjuo5cubJ1vd9nu2XsfA+deaOqu+2yPR0mOxrkesAXePBz/alu/JhiuoAWOLY7iJxAAAOOklEQVR4nO1d2YLqKhCcIFsSddzivkRHj0Y9//97V2MWSEBAZwY813pUE0MHmqruBj4+3njjjTfeeOONN954441fxPprc97vxqHt53ALwdQjCECACFp+2n4YdxAMAPYyQIQ3HdsP5AaaS4o8BhD43bnth7KP+cbnzJIC+KvI9oPZxaRLQc0sqWlob2374exhciZis6Qjio7Gth/QDtYzH0rNkpqGbBe2H/L3cRzR+2a5mSZu/7+ITX9I1Ga5mcab/m9ME7Y9rGeWFIgOWrYf+TcQTEs2pweIya5p+7F/Gq0BMjRLapp/nQ5fSa7BIGLxL9PhzobWSa6JaVYT2034CcxlJFcf0P/36HB0ftosqWno6Gi7Kd8JJck1MA3Z/rHdnO/CcaZBck1M82/Q4T9bTZJ7abKubQh8dToctoE2yUXebEt0TfPadDiYQu2WemR3uWJBdX8OMV6+KB0OdibcH3TTi076TOdF6XCzYcbmyC2WGRgJhtejw52Nb0hbaDYutmaXvVZ0eLI3Z3MkM0xseuHrRIej1SMkl97GRPiI9qbDF6DDj5JccmtbR3ta4k0TO06H1zqRXCHQIL3B8YEek5qGxH3Lbb+H/ePcH+zTOxhM11XQXmC5+VL0HnzdV8BeeovlExocAEfJ8P4Ju3hwmN6j+0xwAowsW0CMsf9EmzwIU1nYe0qHky/bRhBh+FSbIAq/4SbYQTcTPdVhcsOMnovcYAenpsEzge6Lf7g5352+HBfe5WDZCgI85x28bTYIzk8OSLtGECA0ybryjYEAk+Sc3WeZEAzgw9ahzqntyUNc/vKKCe4t+1Ez95pBM+rvepdPH7ONe06m/YCLgSgZTSei6G04mY6SR5KWYPPrLVfAnJkBOjzdC042T8MHZHr8S+3VhjCOAgGSNQ3QvTrCFMkDOwCJBxt2LBAsDBdAvPnqCqMQwNcM10pCgdDft6dD0egljhXuLQT8Aw6voq4zrLUM0pV+FLuzqkt2EKeTj2j4ZuELZ9AQPGMW3/7oVb7DsdlbXccVdQpGtzksEHQZOPvupj0HAZWHIJuCwxFnmaRhmkUMG5zcgF4+t4v+FTkllwKRUML5colWDJkHf8QJrBlPC2ExDkUenziVNViLJA5q51+3tnmfQaP64pIgmu7jnLEG2/00qr/0z1E+nKBX2GUs/NfTD7TvYXyJJgiIipf3mXlgUhN5n/0Vohj4+SwbegBTtOrX7JeFwUBpl7lwKndLR0oUJC36TNgjFwFEq7x0fcA4FUa06CRxOlow7laHRINc3BYZFuHLhUQ1wJ9p4mOQCSUyKpo3nfWSHX/VcVvwN1p8mIeqQG0twSDpHooQ3WQmqy7xHdKRcgV5YWLloODTYlzTSsPMig8hnfHViGUfam3k2SuXdOQ9BQmQ+EEbfNOKz1fMx5A2hNcuwL0/FF9jBfcVJDnXicvE40hbliO4Ys/dC3v1Etawqwhx/GhbjaDIxAOvquzalZHA8NUKh4Z+u3JtINRIDHxndKQy4Ywqs9GyegEs59ha7Lg6nKaq9BV2RkeKFCTfbl7A7Gs8mYkv1dvt88zkoIpfuaMjRQqy8hK5t97sVS0JlsWXVUd+keJc5nWpzCO4oyPVySBacaHTSigBlQynz/cYSCo+pqmsji3Uq20Eyjg4WlavmW+59uNp8c2Y/2JYi9wofYxHHdGRQgXJG0bwCrlQAkPKIuZukO7qF35slU7GER0pVJAssPBBx7B0TaRcLsuwaOQJX73a169+qKWGUCUPs7R0DcGqcBekrC+c54aBflcS0VJ2Gc+NgnpVNh+VDqTiMNq5D2aiS83MMABXyupK//1H5WXc0JETRc+GuJxuQcULd7L4E5NZzVw56VX4ayMpHZWKHrihI1U5SIa8nQjZV64eJOkrZrzztdWQVkuAupiZ0lWVFW7kI1U5yHLyDC+/RL3K+I88jJMp88E4wSSu8J5whi89rwhgdFSjN/6BdhpD8YxeXPyyfR10YFspIQzbA760u3OqjoRmGjNmuoyq5sR3YNuijsLFMG7lNpvA2HTNyDxb4gWKztZWuF8XdKSKVZQzcZTNNxCZLROO8lkdF2xHpeeRiBj+MlQKkgp+6ZvU/i+S/LKsFvgKRREjdKCwVaEgmcYwn9aiT3KcGEdbTl6K1+FAPrKlGO2ojOuzY04ogkTgYlq46GkqjmdfR6oUZOkG+WUCNUIjRpe7fRnnniucDJ7eu+tvQMW1aDEFHfjejwUh8irCHn93uC2+UtFt6zpSpSBJ8cvqoj40UvmBsFpaA1HBgZRC0raOVFRXlnmRejgLc6PpuB0Oh1tuBAxqjoQUE72Sb1vWkUoFeZb/khkYF6dB4BU+y8zq/LaM2+wUhrGtI5UKsugV9ZoNwPiBMC+hQQwtHtQuKWNzqgCnbR25V7y48vmOfCshJITp7av8PnBbOoewVs9aMtq+wjBcd7QAoPCBoGgJ27cgIGDVZnzvomRxmGU4441HWS9Wztcqw3iJVR2pUpAiw0BMh8s1PyMxtIRUdkucTGeU5PY3MIxdHamMS1cNA4h/bgvUddnz/Pq3n4sNJmkBvYFh7OpIZQ6ybMkCQ0S8hmTv66L4AwLxP02+RoQApG8YuzpSmYMsZ6Vj0mvLuUUxyQC5VGgu9kjossTwLVK8T2VSsKTmrbvOcA5vQRdM7kYkwuImymSW1bpWdQ5Sv0Nft2zC6KT7mjUKCSzqSPU6SGJQ3nSc6UdpNDYFsKkjlQsY/Z8j5nP1YiZrTiaUrEG7ih6AMPHhT/bm6EB9gjECMpJpT0eKFSSkYNhbbb76kYp7BvN71XKdtZK7NqM/092mu8XCzmNPRwqnTHQWLAWoIpgvBochpYm8KmzqU987N9TmvaAjLLOypyNFCjLbnUyKcH6cdoeIXk/0uPw8kW2jNE9zAxBgiuPesj9RmKctXEj2UKu+AaLBjeUtCI7T/ZakJikulBJ3NqV2NQ9B513/TqZOlE+hlupahRnkmPtJwPq/MKkvHcWyGTqqVbxC9JehbGHU4SYdUe/FlrauEq6DZPYQmE9n2B+2y4LNXd0nyZPM9aAuMzROg4uDivfH0jYzQY+xpSOFuwPlq7dap2EaSYGorOJp1sK+d5RRXSWSspIovmltgjZZEHgsEie26lpXQv5AB59ha7z3C47DvLdGreqb0zPcbFYjSUxMrhhnEPij9jxsTsXEwdLSJQnvRRRQnlgUHb5ZySlwSmoyTDzWKVQ7JBPBYh0KRPQycwmfxPN/wQoCHGScvGIwpkVffAs4ChYDDybMvFNJNjJGbGnv4fMLVhBA4EvFdmLi0pxL5co504gMODP357Mnydz8jy3JyLXuzijMtgIT9mWzpYqtbDUpQ/i4vAIpOXKgu02ItUJo3b06WAr6xbSWHTjLWy/gvA6bHmAmGN0OIwof/w5EPFwIwviSVdEspnSmJIvMnMx6JFTyHWVmorjGXs5tpN1nypm4zNSzUczSkTNT7Gcx7nxmWtffqcbeRopN3U7NvrxWMWuVnzECADMVvrkNEsaE2vsQ+jZrh6JE/YC3p2Sc6mcMqhZgCD1TzpvZC7JxwFC3v1CDOOkPoK07M7GLqz7T5Z7M3kCc6mJ7V5qeoSzt0x1I2HZx+EZzNHEMJTxjLnATc/MvE5JsY3aHiA/9FwHsL//TdcCEk7q7hHEBldmNKQ8JMBmxQZVaMEIGaH8H25bupmx8xiAqCUtQzYQwNttw5mzqbozrxLqcie40kUjqD5bV0cgQQi4Y1VKv4LqBOrEs56Ov2b8hFVpGQNiIcGv0UHvUurK7Q0Ozh/MVdjmE84wgVxbUt0cTA/TqF1tCdd8yuWXqfXzyt5YVgiipb+XcjHX/xHola4lAeztVv5ZICjv9rueTa0bxAoQwxb1BPTUV6f4FtF3IymGifUoDPovScc2o/7VsHDaNwWksbJc2kfR8tw721T8YCUBzDRMctDeGJg6sVOKg3ouiAF0aOoGjpy2oOYLtBnQd8AVYskJdgvquKlLA2B3HmyOMdd2MMr9dgcEeytglx5tjrr2btWGQWjuUyetwd3DU7vJ5lE5RwpANC+2QHXFmq6EK6osixMhzk5O/575UBUcNmtVjjTVnPGR98ZYUK613C7MQ1VcMIfZHu2On4jE/o+kBU+Ch/e2Heud+sMszXEOoJX+zzbWyZaDwwnW9WXd56vePf/rtwaa3JdejCa7f4VtsQu/0EOTy2YgdLTmZvlkuzwovYgDja6kh4qqRMj2uWvxzhVCgugMNf5DFxdWl3V6Remqpf0usL5tVYKrcLDAridE79zC5eZmFcvMeM2pkA4f7bzfnpprR23x7K8VgsleHqI/w/hySlwqp1wJwLQ7ue3XkzPaad9C81+SC9OqeIEqyuebu4lCrSUd9rO+kJ/MyD9UWBAXy2qJ7qXzqyL53Spzkjcg7gPb5XXlJRCg/P91iVYMp5OnJbKm9dga6yEvK14w5egiiGNIlgVl9/07/SMlsrb/cxyAH9qPShvz9kkH4ESxNjtrEq/lHKB+dL+J4c8jlDaKe2dnpHiSJLze03WoPc9wJ6z93PCAP69Ue5tg8czKtLhyo9jDH7JnzdvUAofU9uh5A6/HTHnXtUt1x+0Xw4NGR+nCk2sMcuvUhDwLXdiJ/GRjxFVM4VO1hDoP0pCnKk9xeEcG3khbOLsTFpKM+5srjFR4Edavawxz69SFGwK5Ve5jjyTPPxXCw2sMc5+93wC4nHfWhl540souT1R7m0K8P0UTiZrWHOca6i3f0QOq1rq+Kvn6xmBqSkwBfE2Ogu/JVBWB5gdZ3Ixwgim41zo8DIUI2rxT61kPU3jWew+60/hem6TfeeOONN95444033njjjdfFf+3dxniwMyHAAAAAAElFTkSuQmCC;" vertex="1" parent="1">
          <mxGeometry x="165" y="580" width="46.66" height="30" as="geometry"/>
        </mxCell>
        <mxCell id="9fpFaIlWNL28QZtfQ_b3-8" value="" style="outlineConnect=0;dashed=0;verticalLabelPosition=bottom;verticalAlign=top;align=center;html=1;shape=mxgraph.aws3.instances;fillColor=#F58534;gradientColor=none;" vertex="1" parent="1">
          <mxGeometry x="160" y="600" width="35" height="30" as="geometry"/>
        </mxCell>
        <mxCell id="9fpFaIlWNL28QZtfQ_b3-13" value="" style="shape=image;imageAspect=0;aspect=fixed;verticalLabelPosition=bottom;verticalAlign=top;image=data:image/png,iVBORw0KGgoAAAANSUhEUgAAARgAAAC0CAMAAAB4+cOfAAAAilBMVEX///8zbuUpaeSFo+4vbOUmaOQiZuQcZOQXYuMUYeP1+P78/f/r8Pzx9f2ovfLw9P3m7PtvlOtbh+mzxfSXsPDR3PhFeedLfefE0vbY4fmftvFTguje5vq5yvWJpu5mjuo5cubJ1vd9nu2XsfA+deaOqu+2yPR0mOxrkesAXePBz/alu/JhiuoAWOLY7iJxAAAOOklEQVR4nO1d2YLqKhCcIFsSddzivkRHj0Y9//97V2MWSEBAZwY813pUE0MHmqruBj4+3njjjTfeeOONN954441fxPprc97vxqHt53ALwdQjCECACFp+2n4YdxAMAPYyQIQ3HdsP5AaaS4o8BhD43bnth7KP+cbnzJIC+KvI9oPZxaRLQc0sqWlob2374exhciZis6Qjio7Gth/QDtYzH0rNkpqGbBe2H/L3cRzR+2a5mSZu/7+ITX9I1Ga5mcab/m9ME7Y9rGeWFIgOWrYf+TcQTEs2pweIya5p+7F/Gq0BMjRLapp/nQ5fSa7BIGLxL9PhzobWSa6JaVYT2034CcxlJFcf0P/36HB0ftosqWno6Gi7Kd8JJck1MA3Z/rHdnO/CcaZBck1M82/Q4T9bTZJ7abKubQh8dToctoE2yUXebEt0TfPadDiYQu2WemR3uWJBdX8OMV6+KB0OdibcH3TTi076TOdF6XCzYcbmyC2WGRgJhtejw52Nb0hbaDYutmaXvVZ0eLI3Z3MkM0xseuHrRIej1SMkl97GRPiI9qbDF6DDj5JccmtbR3ta4k0TO06H1zqRXCHQIL3B8YEek5qGxH3Lbb+H/ePcH+zTOxhM11XQXmC5+VL0HnzdV8BeeovlExocAEfJ8P4Ju3hwmN6j+0xwAowsW0CMsf9EmzwIU1nYe0qHky/bRhBh+FSbIAq/4SbYQTcTPdVhcsOMnovcYAenpsEzge6Lf7g5352+HBfe5WDZCgI85x28bTYIzk8OSLtGECA0ybryjYEAk+Sc3WeZEAzgw9ahzqntyUNc/vKKCe4t+1Ez95pBM+rvepdPH7ONe06m/YCLgSgZTSei6G04mY6SR5KWYPPrLVfAnJkBOjzdC042T8MHZHr8S+3VhjCOAgGSNQ3QvTrCFMkDOwCJBxt2LBAsDBdAvPnqCqMQwNcM10pCgdDft6dD0egljhXuLQT8Aw6voq4zrLUM0pV+FLuzqkt2EKeTj2j4ZuELZ9AQPGMW3/7oVb7DsdlbXccVdQpGtzksEHQZOPvupj0HAZWHIJuCwxFnmaRhmkUMG5zcgF4+t4v+FTkllwKRUML5colWDJkHf8QJrBlPC2ExDkUenziVNViLJA5q51+3tnmfQaP64pIgmu7jnLEG2/00qr/0z1E+nKBX2GUs/NfTD7TvYXyJJgiIipf3mXlgUhN5n/0Vohj4+SwbegBTtOrX7JeFwUBpl7lwKndLR0oUJC36TNgjFwFEq7x0fcA4FUa06CRxOlow7laHRINc3BYZFuHLhUQ1wJ9p4mOQCSUyKpo3nfWSHX/VcVvwN1p8mIeqQG0twSDpHooQ3WQmqy7xHdKRcgV5YWLloODTYlzTSsPMig8hnfHViGUfam3k2SuXdOQ9BQmQ+EEbfNOKz1fMx5A2hNcuwL0/FF9jBfcVJDnXicvE40hbliO4Ys/dC3v1Etawqwhx/GhbjaDIxAOvquzalZHA8NUKh4Z+u3JtINRIDHxndKQy4Ywqs9GyegEs59ha7Lg6nKaq9BV2RkeKFCTfbl7A7Gs8mYkv1dvt88zkoIpfuaMjRQqy8hK5t97sVS0JlsWXVUd+keJc5nWpzCO4oyPVySBacaHTSigBlQynz/cYSCo+pqmsji3Uq20Eyjg4WlavmW+59uNp8c2Y/2JYi9wofYxHHdGRQgXJG0bwCrlQAkPKIuZukO7qF35slU7GER0pVJAssPBBx7B0TaRcLsuwaOQJX73a169+qKWGUCUPs7R0DcGqcBekrC+c54aBflcS0VJ2Gc+NgnpVNh+VDqTiMNq5D2aiS83MMABXyupK//1H5WXc0JETRc+GuJxuQcULd7L4E5NZzVw56VX4ayMpHZWKHrihI1U5SIa8nQjZV64eJOkrZrzztdWQVkuAupiZ0lWVFW7kI1U5yHLyDC+/RL3K+I88jJMp88E4wSSu8J5whi89rwhgdFSjN/6BdhpD8YxeXPyyfR10YFspIQzbA760u3OqjoRmGjNmuoyq5sR3YNuijsLFMG7lNpvA2HTNyDxb4gWKztZWuF8XdKSKVZQzcZTNNxCZLROO8lkdF2xHpeeRiBj+MlQKkgp+6ZvU/i+S/LKsFvgKRREjdKCwVaEgmcYwn9aiT3KcGEdbTl6K1+FAPrKlGO2ojOuzY04ogkTgYlq46GkqjmdfR6oUZOkG+WUCNUIjRpe7fRnnniucDJ7eu+tvQMW1aDEFHfjejwUh8irCHn93uC2+UtFt6zpSpSBJ8cvqoj40UvmBsFpaA1HBgZRC0raOVFRXlnmRejgLc6PpuB0Oh1tuBAxqjoQUE72Sb1vWkUoFeZb/khkYF6dB4BU+y8zq/LaM2+wUhrGtI5UKsugV9ZoNwPiBMC+hQQwtHtQuKWNzqgCnbR25V7y48vmOfCshJITp7av8PnBbOoewVs9aMtq+wjBcd7QAoPCBoGgJ27cgIGDVZnzvomRxmGU4441HWS9Wztcqw3iJVR2pUpAiw0BMh8s1PyMxtIRUdkucTGeU5PY3MIxdHamMS1cNA4h/bgvUddnz/Pq3n4sNJmkBvYFh7OpIZQ6ybMkCQ0S8hmTv66L4AwLxP02+RoQApG8YuzpSmYMsZ6Vj0mvLuUUxyQC5VGgu9kjossTwLVK8T2VSsKTmrbvOcA5vQRdM7kYkwuImymSW1bpWdQ5Sv0Nft2zC6KT7mjUKCSzqSPU6SGJQ3nSc6UdpNDYFsKkjlQsY/Z8j5nP1YiZrTiaUrEG7ih6AMPHhT/bm6EB9gjECMpJpT0eKFSSkYNhbbb76kYp7BvN71XKdtZK7NqM/092mu8XCzmNPRwqnTHQWLAWoIpgvBochpYm8KmzqU987N9TmvaAjLLOypyNFCjLbnUyKcH6cdoeIXk/0uPw8kW2jNE9zAxBgiuPesj9RmKctXEj2UKu+AaLBjeUtCI7T/ZakJikulBJ3NqV2NQ9B513/TqZOlE+hlupahRnkmPtJwPq/MKkvHcWyGTqqVbxC9JehbGHU4SYdUe/FlrauEq6DZPYQmE9n2B+2y4LNXd0nyZPM9aAuMzROg4uDivfH0jYzQY+xpSOFuwPlq7dap2EaSYGorOJp1sK+d5RRXSWSspIovmltgjZZEHgsEie26lpXQv5AB59ha7z3C47DvLdGreqb0zPcbFYjSUxMrhhnEPij9jxsTsXEwdLSJQnvRRRQnlgUHb5ZySlwSmoyTDzWKVQ7JBPBYh0KRPQycwmfxPN/wQoCHGScvGIwpkVffAs4ChYDDybMvFNJNjJGbGnv4fMLVhBA4EvFdmLi0pxL5co504gMODP357Mnydz8jy3JyLXuzijMtgIT9mWzpYqtbDUpQ/i4vAIpOXKgu02ItUJo3b06WAr6xbSWHTjLWy/gvA6bHmAmGN0OIwof/w5EPFwIwviSVdEspnSmJIvMnMx6JFTyHWVmorjGXs5tpN1nypm4zNSzUczSkTNT7Gcx7nxmWtffqcbeRopN3U7NvrxWMWuVnzECADMVvrkNEsaE2vsQ+jZrh6JE/YC3p2Sc6mcMqhZgCD1TzpvZC7JxwFC3v1CDOOkPoK07M7GLqz7T5Z7M3kCc6mJ7V5qeoSzt0x1I2HZx+EZzNHEMJTxjLnATc/MvE5JsY3aHiA/9FwHsL//TdcCEk7q7hHEBldmNKQ8JMBmxQZVaMEIGaH8H25bupmx8xiAqCUtQzYQwNttw5mzqbozrxLqcie40kUjqD5bV0cgQQi4Y1VKv4LqBOrEs56Ov2b8hFVpGQNiIcGv0UHvUurK7Q0Ozh/MVdjmE84wgVxbUt0cTA/TqF1tCdd8yuWXqfXzyt5YVgiipb+XcjHX/xHola4lAeztVv5ZICjv9rueTa0bxAoQwxb1BPTUV6f4FtF3IymGifUoDPovScc2o/7VsHDaNwWksbJc2kfR8tw721T8YCUBzDRMctDeGJg6sVOKg3ouiAF0aOoGjpy2oOYLtBnQd8AVYskJdgvquKlLA2B3HmyOMdd2MMr9dgcEeytglx5tjrr2btWGQWjuUyetwd3DU7vJ5lE5RwpANC+2QHXFmq6EK6osixMhzk5O/575UBUcNmtVjjTVnPGR98ZYUK613C7MQ1VcMIfZHu2On4jE/o+kBU+Ch/e2Heud+sMszXEOoJX+zzbWyZaDwwnW9WXd56vePf/rtwaa3JdejCa7f4VtsQu/0EOTy2YgdLTmZvlkuzwovYgDja6kh4qqRMj2uWvxzhVCgugMNf5DFxdWl3V6Remqpf0usL5tVYKrcLDAridE79zC5eZmFcvMeM2pkA4f7bzfnpprR23x7K8VgsleHqI/w/hySlwqp1wJwLQ7ue3XkzPaad9C81+SC9OqeIEqyuebu4lCrSUd9rO+kJ/MyD9UWBAXy2qJ7qXzqyL53Spzkjcg7gPb5XXlJRCg/P91iVYMp5OnJbKm9dga6yEvK14w5egiiGNIlgVl9/07/SMlsrb/cxyAH9qPShvz9kkH4ESxNjtrEq/lHKB+dL+J4c8jlDaKe2dnpHiSJLze03WoPc9wJ6z93PCAP69Ue5tg8czKtLhyo9jDH7JnzdvUAofU9uh5A6/HTHnXtUt1x+0Xw4NGR+nCk2sMcuvUhDwLXdiJ/GRjxFVM4VO1hDoP0pCnKk9xeEcG3khbOLsTFpKM+5srjFR4Edavawxz69SFGwK5Ve5jjyTPPxXCw2sMc5+93wC4nHfWhl540souT1R7m0K8P0UTiZrWHOca6i3f0QOq1rq+Kvn6xmBqSkwBfE2Ogu/JVBWB5gdZ3Ixwgim41zo8DIUI2rxT61kPU3jWew+60/hem6TfeeOONN95444033njjjdfFf+3dxniwMyHAAAAAAElFTkSuQmCC;" vertex="1" parent="1">
          <mxGeometry x="370" y="580" width="46.66" height="30" as="geometry"/>
        </mxCell>
        <mxCell id="9fpFaIlWNL28QZtfQ_b3-14" style="edgeStyle=orthogonalEdgeStyle;rounded=0;orthogonalLoop=1;jettySize=auto;html=1;exitX=0.5;exitY=1;exitDx=0;exitDy=0;" edge="1" parent="1">
          <mxGeometry relative="1" as="geometry">
            <mxPoint x="202.75" y="710" as="sourcePoint"/>
            <mxPoint x="202.75" y="710" as="targetPoint"/>
          </mxGeometry>
        </mxCell>
        <mxCell id="9fpFaIlWNL28QZtfQ_b3-15" value="" style="rounded=1;arcSize=10;dashed=1;fillColor=none;gradientColor=none;dashPattern=8 3 1 3;strokeWidth=2;" vertex="1" parent="1">
          <mxGeometry x="598.29" y="446.79" width="43.37" height="38.75" as="geometry"/>
        </mxCell>
        <mxCell id="9fpFaIlWNL28QZtfQ_b3-16" value="" style="rounded=1;arcSize=10;dashed=1;fillColor=none;gradientColor=none;dashPattern=8 3 1 3;strokeWidth=2;" vertex="1" parent="1">
          <mxGeometry x="138.33" y="560" width="181.67" height="100" as="geometry"/>
        </mxCell>
        <mxCell id="9fpFaIlWNL28QZtfQ_b3-19" value="" style="outlineConnect=0;dashed=0;verticalLabelPosition=bottom;verticalAlign=top;align=center;html=1;shape=mxgraph.aws3.instances;fillColor=#F58534;gradientColor=none;" vertex="1" parent="1">
          <mxGeometry x="641.66" y="592.5" width="35" height="30" as="geometry"/>
        </mxCell>
        <mxCell id="9fpFaIlWNL28QZtfQ_b3-20" value="" style="outlineConnect=0;dashed=0;verticalLabelPosition=bottom;verticalAlign=top;align=center;html=1;shape=mxgraph.aws3.instances;fillColor=#F58534;gradientColor=none;" vertex="1" parent="1">
          <mxGeometry x="360.00000000000006" y="595" width="35" height="30" as="geometry"/>
        </mxCell>
        <mxCell id="9fpFaIlWNL28QZtfQ_b3-23" value="" style="outlineConnect=0;dashed=0;verticalLabelPosition=bottom;verticalAlign=top;align=center;html=1;shape=mxgraph.aws3.instances;fillColor=#F58534;gradientColor=none;" vertex="1" parent="1">
          <mxGeometry x="544.42" y="588.75" width="35" height="30" as="geometry"/>
        </mxCell>
        <mxCell id="9fpFaIlWNL28QZtfQ_b3-29" value="" style="shape=image;imageAspect=0;aspect=fixed;verticalLabelPosition=bottom;verticalAlign=top;image=data:image/png,iVBORw0KGgoAAAANSUhEUgAAARgAAAC0CAMAAAB4+cOfAAAAilBMVEX///8zbuUpaeSFo+4vbOUmaOQiZuQcZOQXYuMUYeP1+P78/f/r8Pzx9f2ovfLw9P3m7PtvlOtbh+mzxfSXsPDR3PhFeedLfefE0vbY4fmftvFTguje5vq5yvWJpu5mjuo5cubJ1vd9nu2XsfA+deaOqu+2yPR0mOxrkesAXePBz/alu/JhiuoAWOLY7iJxAAAOOklEQVR4nO1d2YLqKhCcIFsSddzivkRHj0Y9//97V2MWSEBAZwY813pUE0MHmqruBj4+3njjjTfeeOONN954441fxPprc97vxqHt53ALwdQjCECACFp+2n4YdxAMAPYyQIQ3HdsP5AaaS4o8BhD43bnth7KP+cbnzJIC+KvI9oPZxaRLQc0sqWlob2374exhciZis6Qjio7Gth/QDtYzH0rNkpqGbBe2H/L3cRzR+2a5mSZu/7+ITX9I1Ga5mcab/m9ME7Y9rGeWFIgOWrYf+TcQTEs2pweIya5p+7F/Gq0BMjRLapp/nQ5fSa7BIGLxL9PhzobWSa6JaVYT2034CcxlJFcf0P/36HB0ftosqWno6Gi7Kd8JJck1MA3Z/rHdnO/CcaZBck1M82/Q4T9bTZJ7abKubQh8dToctoE2yUXebEt0TfPadDiYQu2WemR3uWJBdX8OMV6+KB0OdibcH3TTi076TOdF6XCzYcbmyC2WGRgJhtejw52Nb0hbaDYutmaXvVZ0eLI3Z3MkM0xseuHrRIej1SMkl97GRPiI9qbDF6DDj5JccmtbR3ta4k0TO06H1zqRXCHQIL3B8YEek5qGxH3Lbb+H/ePcH+zTOxhM11XQXmC5+VL0HnzdV8BeeovlExocAEfJ8P4Ju3hwmN6j+0xwAowsW0CMsf9EmzwIU1nYe0qHky/bRhBh+FSbIAq/4SbYQTcTPdVhcsOMnovcYAenpsEzge6Lf7g5352+HBfe5WDZCgI85x28bTYIzk8OSLtGECA0ybryjYEAk+Sc3WeZEAzgw9ahzqntyUNc/vKKCe4t+1Ez95pBM+rvepdPH7ONe06m/YCLgSgZTSei6G04mY6SR5KWYPPrLVfAnJkBOjzdC042T8MHZHr8S+3VhjCOAgGSNQ3QvTrCFMkDOwCJBxt2LBAsDBdAvPnqCqMQwNcM10pCgdDft6dD0egljhXuLQT8Aw6voq4zrLUM0pV+FLuzqkt2EKeTj2j4ZuELZ9AQPGMW3/7oVb7DsdlbXccVdQpGtzksEHQZOPvupj0HAZWHIJuCwxFnmaRhmkUMG5zcgF4+t4v+FTkllwKRUML5colWDJkHf8QJrBlPC2ExDkUenziVNViLJA5q51+3tnmfQaP64pIgmu7jnLEG2/00qr/0z1E+nKBX2GUs/NfTD7TvYXyJJgiIipf3mXlgUhN5n/0Vohj4+SwbegBTtOrX7JeFwUBpl7lwKndLR0oUJC36TNgjFwFEq7x0fcA4FUa06CRxOlow7laHRINc3BYZFuHLhUQ1wJ9p4mOQCSUyKpo3nfWSHX/VcVvwN1p8mIeqQG0twSDpHooQ3WQmqy7xHdKRcgV5YWLloODTYlzTSsPMig8hnfHViGUfam3k2SuXdOQ9BQmQ+EEbfNOKz1fMx5A2hNcuwL0/FF9jBfcVJDnXicvE40hbliO4Ys/dC3v1Etawqwhx/GhbjaDIxAOvquzalZHA8NUKh4Z+u3JtINRIDHxndKQy4Ywqs9GyegEs59ha7Lg6nKaq9BV2RkeKFCTfbl7A7Gs8mYkv1dvt88zkoIpfuaMjRQqy8hK5t97sVS0JlsWXVUd+keJc5nWpzCO4oyPVySBacaHTSigBlQynz/cYSCo+pqmsji3Uq20Eyjg4WlavmW+59uNp8c2Y/2JYi9wofYxHHdGRQgXJG0bwCrlQAkPKIuZukO7qF35slU7GER0pVJAssPBBx7B0TaRcLsuwaOQJX73a169+qKWGUCUPs7R0DcGqcBekrC+c54aBflcS0VJ2Gc+NgnpVNh+VDqTiMNq5D2aiS83MMABXyupK//1H5WXc0JETRc+GuJxuQcULd7L4E5NZzVw56VX4ayMpHZWKHrihI1U5SIa8nQjZV64eJOkrZrzztdWQVkuAupiZ0lWVFW7kI1U5yHLyDC+/RL3K+I88jJMp88E4wSSu8J5whi89rwhgdFSjN/6BdhpD8YxeXPyyfR10YFspIQzbA760u3OqjoRmGjNmuoyq5sR3YNuijsLFMG7lNpvA2HTNyDxb4gWKztZWuF8XdKSKVZQzcZTNNxCZLROO8lkdF2xHpeeRiBj+MlQKkgp+6ZvU/i+S/LKsFvgKRREjdKCwVaEgmcYwn9aiT3KcGEdbTl6K1+FAPrKlGO2ojOuzY04ogkTgYlq46GkqjmdfR6oUZOkG+WUCNUIjRpe7fRnnniucDJ7eu+tvQMW1aDEFHfjejwUh8irCHn93uC2+UtFt6zpSpSBJ8cvqoj40UvmBsFpaA1HBgZRC0raOVFRXlnmRejgLc6PpuB0Oh1tuBAxqjoQUE72Sb1vWkUoFeZb/khkYF6dB4BU+y8zq/LaM2+wUhrGtI5UKsugV9ZoNwPiBMC+hQQwtHtQuKWNzqgCnbR25V7y48vmOfCshJITp7av8PnBbOoewVs9aMtq+wjBcd7QAoPCBoGgJ27cgIGDVZnzvomRxmGU4441HWS9Wztcqw3iJVR2pUpAiw0BMh8s1PyMxtIRUdkucTGeU5PY3MIxdHamMS1cNA4h/bgvUddnz/Pq3n4sNJmkBvYFh7OpIZQ6ybMkCQ0S8hmTv66L4AwLxP02+RoQApG8YuzpSmYMsZ6Vj0mvLuUUxyQC5VGgu9kjossTwLVK8T2VSsKTmrbvOcA5vQRdM7kYkwuImymSW1bpWdQ5Sv0Nft2zC6KT7mjUKCSzqSPU6SGJQ3nSc6UdpNDYFsKkjlQsY/Z8j5nP1YiZrTiaUrEG7ih6AMPHhT/bm6EB9gjECMpJpT0eKFSSkYNhbbb76kYp7BvN71XKdtZK7NqM/092mu8XCzmNPRwqnTHQWLAWoIpgvBochpYm8KmzqU987N9TmvaAjLLOypyNFCjLbnUyKcH6cdoeIXk/0uPw8kW2jNE9zAxBgiuPesj9RmKctXEj2UKu+AaLBjeUtCI7T/ZakJikulBJ3NqV2NQ9B513/TqZOlE+hlupahRnkmPtJwPq/MKkvHcWyGTqqVbxC9JehbGHU4SYdUe/FlrauEq6DZPYQmE9n2B+2y4LNXd0nyZPM9aAuMzROg4uDivfH0jYzQY+xpSOFuwPlq7dap2EaSYGorOJp1sK+d5RRXSWSspIovmltgjZZEHgsEie26lpXQv5AB59ha7z3C47DvLdGreqb0zPcbFYjSUxMrhhnEPij9jxsTsXEwdLSJQnvRRRQnlgUHb5ZySlwSmoyTDzWKVQ7JBPBYh0KRPQycwmfxPN/wQoCHGScvGIwpkVffAs4ChYDDybMvFNJNjJGbGnv4fMLVhBA4EvFdmLi0pxL5co504gMODP357Mnydz8jy3JyLXuzijMtgIT9mWzpYqtbDUpQ/i4vAIpOXKgu02ItUJo3b06WAr6xbSWHTjLWy/gvA6bHmAmGN0OIwof/w5EPFwIwviSVdEspnSmJIvMnMx6JFTyHWVmorjGXs5tpN1nypm4zNSzUczSkTNT7Gcx7nxmWtffqcbeRopN3U7NvrxWMWuVnzECADMVvrkNEsaE2vsQ+jZrh6JE/YC3p2Sc6mcMqhZgCD1TzpvZC7JxwFC3v1CDOOkPoK07M7GLqz7T5Z7M3kCc6mJ7V5qeoSzt0x1I2HZx+EZzNHEMJTxjLnATc/MvE5JsY3aHiA/9FwHsL//TdcCEk7q7hHEBldmNKQ8JMBmxQZVaMEIGaH8H25bupmx8xiAqCUtQzYQwNttw5mzqbozrxLqcie40kUjqD5bV0cgQQi4Y1VKv4LqBOrEs56Ov2b8hFVpGQNiIcGv0UHvUurK7Q0Ozh/MVdjmE84wgVxbUt0cTA/TqF1tCdd8yuWXqfXzyt5YVgiipb+XcjHX/xHola4lAeztVv5ZICjv9rueTa0bxAoQwxb1BPTUV6f4FtF3IymGifUoDPovScc2o/7VsHDaNwWksbJc2kfR8tw721T8YCUBzDRMctDeGJg6sVOKg3ouiAF0aOoGjpy2oOYLtBnQd8AVYskJdgvquKlLA2B3HmyOMdd2MMr9dgcEeytglx5tjrr2btWGQWjuUyetwd3DU7vJ5lE5RwpANC+2QHXFmq6EK6osixMhzk5O/575UBUcNmtVjjTVnPGR98ZYUK613C7MQ1VcMIfZHu2On4jE/o+kBU+Ch/e2Heud+sMszXEOoJX+zzbWyZaDwwnW9WXd56vePf/rtwaa3JdejCa7f4VtsQu/0EOTy2YgdLTmZvlkuzwovYgDja6kh4qqRMj2uWvxzhVCgugMNf5DFxdWl3V6Remqpf0usL5tVYKrcLDAridE79zC5eZmFcvMeM2pkA4f7bzfnpprR23x7K8VgsleHqI/w/hySlwqp1wJwLQ7ue3XkzPaad9C81+SC9OqeIEqyuebu4lCrSUd9rO+kJ/MyD9UWBAXy2qJ7qXzqyL53Spzkjcg7gPb5XXlJRCg/P91iVYMp5OnJbKm9dga6yEvK14w5egiiGNIlgVl9/07/SMlsrb/cxyAH9qPShvz9kkH4ESxNjtrEq/lHKB+dL+J4c8jlDaKe2dnpHiSJLze03WoPc9wJ6z93PCAP69Ue5tg8czKtLhyo9jDH7JnzdvUAofU9uh5A6/HTHnXtUt1x+0Xw4NGR+nCk2sMcuvUhDwLXdiJ/GRjxFVM4VO1hDoP0pCnKk9xeEcG3khbOLsTFpKM+5srjFR4Edavawxz69SFGwK5Ve5jjyTPPxXCw2sMc5+93wC4nHfWhl540souT1R7m0K8P0UTiZrWHOca6i3f0QOq1rq+Kvn6xmBqSkwBfE2Ogu/JVBWB5gdZ3Ixwgim41zo8DIUI2rxT61kPU3jWew+60/hem6TfeeOONN95444033njjjdfFf+3dxniwMyHAAAAAAElFTkSuQmCC;" vertex="1" parent="1">
          <mxGeometry x="262.3399999999999" y="577.5" width="46.66" height="30" as="geometry"/>
        </mxCell>
        <mxCell id="9fpFaIlWNL28QZtfQ_b3-36" value="" style="rounded=1;arcSize=10;dashed=1;strokeColor=#F59D56;fillColor=none;gradientColor=none;dashPattern=8 4;strokeWidth=2;" vertex="1" parent="1">
          <mxGeometry x="146.41" y="573.75" width="73.34" height="60" as="geometry"/>
        </mxCell>
        <mxCell id="9fpFaIlWNL28QZtfQ_b3-45" value="" style="outlineConnect=0;dashed=0;verticalLabelPosition=bottom;verticalAlign=top;align=center;html=1;shape=mxgraph.aws3.instances;fillColor=#F58534;gradientColor=none;" vertex="1" parent="1">
          <mxGeometry x="254.82999999999998" y="588.75" width="35" height="30" as="geometry"/>
        </mxCell>
        <mxCell id="9fpFaIlWNL28QZtfQ_b3-47" value="" style="rounded=1;arcSize=10;dashed=1;strokeColor=#F59D56;fillColor=none;gradientColor=none;dashPattern=8 4;strokeWidth=2;" vertex="1" parent="1">
          <mxGeometry x="235.66" y="573.75" width="73.34" height="60" as="geometry"/>
        </mxCell>
        <mxCell id="9fpFaIlWNL28QZtfQ_b3-50" value="us-east-1a" style="text;html=1;strokeColor=none;fillColor=none;align=center;verticalAlign=middle;whiteSpace=wrap;rounded=0;" vertex="1" parent="1">
          <mxGeometry x="153.07999999999998" y="630" width="60" height="20" as="geometry"/>
        </mxCell>
        <mxCell id="9fpFaIlWNL28QZtfQ_b3-51" value="us-east-1b" style="text;html=1;strokeColor=none;fillColor=none;align=center;verticalAlign=middle;whiteSpace=wrap;rounded=0;" vertex="1" parent="1">
          <mxGeometry x="242.33" y="630" width="60" height="20" as="geometry"/>
        </mxCell>
        <mxCell id="9fpFaIlWNL28QZtfQ_b3-55" value="&lt;font style=&quot;font-size: 10px&quot;&gt;&lt;b&gt;ETCD CLUSTER&lt;/b&gt;&lt;/font&gt;" style="text;html=1;strokeColor=none;fillColor=none;align=center;verticalAlign=middle;whiteSpace=wrap;rounded=0;" vertex="1" parent="1">
          <mxGeometry x="142.32999999999998" y="660" width="100" height="20" as="geometry"/>
        </mxCell>
        <mxCell id="9fpFaIlWNL28QZtfQ_b3-58" value="" style="rounded=1;arcSize=10;dashed=1;strokeColor=#F59D56;fillColor=none;gradientColor=none;dashPattern=8 4;strokeWidth=2;" vertex="1" parent="1">
          <mxGeometry x="350" y="577.5" width="66.66" height="52.5" as="geometry"/>
        </mxCell>
        <mxCell id="9fpFaIlWNL28QZtfQ_b3-60" value="" style="rounded=1;arcSize=10;dashed=1;strokeColor=#F59D56;fillColor=none;gradientColor=none;dashPattern=8 4;strokeWidth=2;" vertex="1" parent="1">
          <mxGeometry x="440" y="577.5" width="70" height="60" as="geometry"/>
        </mxCell>
        <mxCell id="9fpFaIlWNL28QZtfQ_b3-67" value="" style="shape=image;imageAspect=0;aspect=fixed;verticalLabelPosition=bottom;verticalAlign=top;image=data:image/png,iVBORw0KGgoAAAANSUhEUgAAARgAAAC0CAMAAAB4+cOfAAAAilBMVEX///8zbuUpaeSFo+4vbOUmaOQiZuQcZOQXYuMUYeP1+P78/f/r8Pzx9f2ovfLw9P3m7PtvlOtbh+mzxfSXsPDR3PhFeedLfefE0vbY4fmftvFTguje5vq5yvWJpu5mjuo5cubJ1vd9nu2XsfA+deaOqu+2yPR0mOxrkesAXePBz/alu/JhiuoAWOLY7iJxAAAOOklEQVR4nO1d2YLqKhCcIFsSddzivkRHj0Y9//97V2MWSEBAZwY813pUE0MHmqruBj4+3njjjTfeeOONN954441fxPprc97vxqHt53ALwdQjCECACFp+2n4YdxAMAPYyQIQ3HdsP5AaaS4o8BhD43bnth7KP+cbnzJIC+KvI9oPZxaRLQc0sqWlob2374exhciZis6Qjio7Gth/QDtYzH0rNkpqGbBe2H/L3cRzR+2a5mSZu/7+ITX9I1Ga5mcab/m9ME7Y9rGeWFIgOWrYf+TcQTEs2pweIya5p+7F/Gq0BMjRLapp/nQ5fSa7BIGLxL9PhzobWSa6JaVYT2034CcxlJFcf0P/36HB0ftosqWno6Gi7Kd8JJck1MA3Z/rHdnO/CcaZBck1M82/Q4T9bTZJ7abKubQh8dToctoE2yUXebEt0TfPadDiYQu2WemR3uWJBdX8OMV6+KB0OdibcH3TTi076TOdF6XCzYcbmyC2WGRgJhtejw52Nb0hbaDYutmaXvVZ0eLI3Z3MkM0xseuHrRIej1SMkl97GRPiI9qbDF6DDj5JccmtbR3ta4k0TO06H1zqRXCHQIL3B8YEek5qGxH3Lbb+H/ePcH+zTOxhM11XQXmC5+VL0HnzdV8BeeovlExocAEfJ8P4Ju3hwmN6j+0xwAowsW0CMsf9EmzwIU1nYe0qHky/bRhBh+FSbIAq/4SbYQTcTPdVhcsOMnovcYAenpsEzge6Lf7g5352+HBfe5WDZCgI85x28bTYIzk8OSLtGECA0ybryjYEAk+Sc3WeZEAzgw9ahzqntyUNc/vKKCe4t+1Ez95pBM+rvepdPH7ONe06m/YCLgSgZTSei6G04mY6SR5KWYPPrLVfAnJkBOjzdC042T8MHZHr8S+3VhjCOAgGSNQ3QvTrCFMkDOwCJBxt2LBAsDBdAvPnqCqMQwNcM10pCgdDft6dD0egljhXuLQT8Aw6voq4zrLUM0pV+FLuzqkt2EKeTj2j4ZuELZ9AQPGMW3/7oVb7DsdlbXccVdQpGtzksEHQZOPvupj0HAZWHIJuCwxFnmaRhmkUMG5zcgF4+t4v+FTkllwKRUML5colWDJkHf8QJrBlPC2ExDkUenziVNViLJA5q51+3tnmfQaP64pIgmu7jnLEG2/00qr/0z1E+nKBX2GUs/NfTD7TvYXyJJgiIipf3mXlgUhN5n/0Vohj4+SwbegBTtOrX7JeFwUBpl7lwKndLR0oUJC36TNgjFwFEq7x0fcA4FUa06CRxOlow7laHRINc3BYZFuHLhUQ1wJ9p4mOQCSUyKpo3nfWSHX/VcVvwN1p8mIeqQG0twSDpHooQ3WQmqy7xHdKRcgV5YWLloODTYlzTSsPMig8hnfHViGUfam3k2SuXdOQ9BQmQ+EEbfNOKz1fMx5A2hNcuwL0/FF9jBfcVJDnXicvE40hbliO4Ys/dC3v1Etawqwhx/GhbjaDIxAOvquzalZHA8NUKh4Z+u3JtINRIDHxndKQy4Ywqs9GyegEs59ha7Lg6nKaq9BV2RkeKFCTfbl7A7Gs8mYkv1dvt88zkoIpfuaMjRQqy8hK5t97sVS0JlsWXVUd+keJc5nWpzCO4oyPVySBacaHTSigBlQynz/cYSCo+pqmsji3Uq20Eyjg4WlavmW+59uNp8c2Y/2JYi9wofYxHHdGRQgXJG0bwCrlQAkPKIuZukO7qF35slU7GER0pVJAssPBBx7B0TaRcLsuwaOQJX73a169+qKWGUCUPs7R0DcGqcBekrC+c54aBflcS0VJ2Gc+NgnpVNh+VDqTiMNq5D2aiS83MMABXyupK//1H5WXc0JETRc+GuJxuQcULd7L4E5NZzVw56VX4ayMpHZWKHrihI1U5SIa8nQjZV64eJOkrZrzztdWQVkuAupiZ0lWVFW7kI1U5yHLyDC+/RL3K+I88jJMp88E4wSSu8J5whi89rwhgdFSjN/6BdhpD8YxeXPyyfR10YFspIQzbA760u3OqjoRmGjNmuoyq5sR3YNuijsLFMG7lNpvA2HTNyDxb4gWKztZWuF8XdKSKVZQzcZTNNxCZLROO8lkdF2xHpeeRiBj+MlQKkgp+6ZvU/i+S/LKsFvgKRREjdKCwVaEgmcYwn9aiT3KcGEdbTl6K1+FAPrKlGO2ojOuzY04ogkTgYlq46GkqjmdfR6oUZOkG+WUCNUIjRpe7fRnnniucDJ7eu+tvQMW1aDEFHfjejwUh8irCHn93uC2+UtFt6zpSpSBJ8cvqoj40UvmBsFpaA1HBgZRC0raOVFRXlnmRejgLc6PpuB0Oh1tuBAxqjoQUE72Sb1vWkUoFeZb/khkYF6dB4BU+y8zq/LaM2+wUhrGtI5UKsugV9ZoNwPiBMC+hQQwtHtQuKWNzqgCnbR25V7y48vmOfCshJITp7av8PnBbOoewVs9aMtq+wjBcd7QAoPCBoGgJ27cgIGDVZnzvomRxmGU4441HWS9Wztcqw3iJVR2pUpAiw0BMh8s1PyMxtIRUdkucTGeU5PY3MIxdHamMS1cNA4h/bgvUddnz/Pq3n4sNJmkBvYFh7OpIZQ6ybMkCQ0S8hmTv66L4AwLxP02+RoQApG8YuzpSmYMsZ6Vj0mvLuUUxyQC5VGgu9kjossTwLVK8T2VSsKTmrbvOcA5vQRdM7kYkwuImymSW1bpWdQ5Sv0Nft2zC6KT7mjUKCSzqSPU6SGJQ3nSc6UdpNDYFsKkjlQsY/Z8j5nP1YiZrTiaUrEG7ih6AMPHhT/bm6EB9gjECMpJpT0eKFSSkYNhbbb76kYp7BvN71XKdtZK7NqM/092mu8XCzmNPRwqnTHQWLAWoIpgvBochpYm8KmzqU987N9TmvaAjLLOypyNFCjLbnUyKcH6cdoeIXk/0uPw8kW2jNE9zAxBgiuPesj9RmKctXEj2UKu+AaLBjeUtCI7T/ZakJikulBJ3NqV2NQ9B513/TqZOlE+hlupahRnkmPtJwPq/MKkvHcWyGTqqVbxC9JehbGHU4SYdUe/FlrauEq6DZPYQmE9n2B+2y4LNXd0nyZPM9aAuMzROg4uDivfH0jYzQY+xpSOFuwPlq7dap2EaSYGorOJp1sK+d5RRXSWSspIovmltgjZZEHgsEie26lpXQv5AB59ha7z3C47DvLdGreqb0zPcbFYjSUxMrhhnEPij9jxsTsXEwdLSJQnvRRRQnlgUHb5ZySlwSmoyTDzWKVQ7JBPBYh0KRPQycwmfxPN/wQoCHGScvGIwpkVffAs4ChYDDybMvFNJNjJGbGnv4fMLVhBA4EvFdmLi0pxL5co504gMODP357Mnydz8jy3JyLXuzijMtgIT9mWzpYqtbDUpQ/i4vAIpOXKgu02ItUJo3b06WAr6xbSWHTjLWy/gvA6bHmAmGN0OIwof/w5EPFwIwviSVdEspnSmJIvMnMx6JFTyHWVmorjGXs5tpN1nypm4zNSzUczSkTNT7Gcx7nxmWtffqcbeRopN3U7NvrxWMWuVnzECADMVvrkNEsaE2vsQ+jZrh6JE/YC3p2Sc6mcMqhZgCD1TzpvZC7JxwFC3v1CDOOkPoK07M7GLqz7T5Z7M3kCc6mJ7V5qeoSzt0x1I2HZx+EZzNHEMJTxjLnATc/MvE5JsY3aHiA/9FwHsL//TdcCEk7q7hHEBldmNKQ8JMBmxQZVaMEIGaH8H25bupmx8xiAqCUtQzYQwNttw5mzqbozrxLqcie40kUjqD5bV0cgQQi4Y1VKv4LqBOrEs56Ov2b8hFVpGQNiIcGv0UHvUurK7Q0Ozh/MVdjmE84wgVxbUt0cTA/TqF1tCdd8yuWXqfXzyt5YVgiipb+XcjHX/xHola4lAeztVv5ZICjv9rueTa0bxAoQwxb1BPTUV6f4FtF3IymGifUoDPovScc2o/7VsHDaNwWksbJc2kfR8tw721T8YCUBzDRMctDeGJg6sVOKg3ouiAF0aOoGjpy2oOYLtBnQd8AVYskJdgvquKlLA2B3HmyOMdd2MMr9dgcEeytglx5tjrr2btWGQWjuUyetwd3DU7vJ5lE5RwpANC+2QHXFmq6EK6osixMhzk5O/575UBUcNmtVjjTVnPGR98ZYUK613C7MQ1VcMIfZHu2On4jE/o+kBU+Ch/e2Heud+sMszXEOoJX+zzbWyZaDwwnW9WXd56vePf/rtwaa3JdejCa7f4VtsQu/0EOTy2YgdLTmZvlkuzwovYgDja6kh4qqRMj2uWvxzhVCgugMNf5DFxdWl3V6Remqpf0usL5tVYKrcLDAridE79zC5eZmFcvMeM2pkA4f7bzfnpprR23x7K8VgsleHqI/w/hySlwqp1wJwLQ7ue3XkzPaad9C81+SC9OqeIEqyuebu4lCrSUd9rO+kJ/MyD9UWBAXy2qJ7qXzqyL53Spzkjcg7gPb5XXlJRCg/P91iVYMp5OnJbKm9dga6yEvK14w5egiiGNIlgVl9/07/SMlsrb/cxyAH9qPShvz9kkH4ESxNjtrEq/lHKB+dL+J4c8jlDaKe2dnpHiSJLze03WoPc9wJ6z93PCAP69Ue5tg8czKtLhyo9jDH7JnzdvUAofU9uh5A6/HTHnXtUt1x+0Xw4NGR+nCk2sMcuvUhDwLXdiJ/GRjxFVM4VO1hDoP0pCnKk9xeEcG3khbOLsTFpKM+5srjFR4Edavawxz69SFGwK5Ve5jjyTPPxXCw2sMc5+93wC4nHfWhl540souT1R7m0K8P0UTiZrWHOca6i3f0QOq1rq+Kvn6xmBqSkwBfE2Ogu/JVBWB5gdZ3Ixwgim41zo8DIUI2rxT61kPU3jWew+60/hem6TfeeOONN95444033njjjdfFf+3dxniwMyHAAAAAAElFTkSuQmCC;" vertex="1" parent="1">
          <mxGeometry x="564.9999999999999" y="577.5" width="46.66" height="30" as="geometry"/>
        </mxCell>
        <mxCell id="9fpFaIlWNL28QZtfQ_b3-70" value="&lt;b&gt;K8S MASTER&lt;/b&gt;" style="text;html=1;strokeColor=none;fillColor=none;align=center;verticalAlign=middle;whiteSpace=wrap;rounded=0;" vertex="1" parent="1">
          <mxGeometry x="320.00000000000006" y="660" width="100" height="20" as="geometry"/>
        </mxCell>
        <mxCell id="9fpFaIlWNL28QZtfQ_b3-73" value="us-east-1b" style="text;html=1;strokeColor=none;fillColor=none;align=center;verticalAlign=middle;whiteSpace=wrap;rounded=0;" vertex="1" parent="1">
          <mxGeometry x="641.66" y="633.75" width="70" height="20" as="geometry"/>
        </mxCell>
        <mxCell id="9fpFaIlWNL28QZtfQ_b3-74" value="us-east-1a" style="text;html=1;strokeColor=none;fillColor=none;align=center;verticalAlign=middle;whiteSpace=wrap;rounded=0;" vertex="1" parent="1">
          <mxGeometry x="346.66" y="630" width="70" height="20" as="geometry"/>
        </mxCell>
        <mxCell id="9fpFaIlWNL28QZtfQ_b3-90" value="" style="outlineConnect=0;dashed=0;verticalLabelPosition=bottom;verticalAlign=top;align=center;html=1;shape=mxgraph.aws3.instances;fillColor=#F58534;gradientColor=none;" vertex="1" parent="1">
          <mxGeometry x="457.50000000000006" y="592.5" width="35" height="30" as="geometry"/>
        </mxCell>
        <mxCell id="9fpFaIlWNL28QZtfQ_b3-91" value="" style="shape=image;imageAspect=0;aspect=fixed;verticalLabelPosition=bottom;verticalAlign=top;image=data:image/png,iVBORw0KGgoAAAANSUhEUgAAARgAAAC0CAMAAAB4+cOfAAAAilBMVEX///8zbuUpaeSFo+4vbOUmaOQiZuQcZOQXYuMUYeP1+P78/f/r8Pzx9f2ovfLw9P3m7PtvlOtbh+mzxfSXsPDR3PhFeedLfefE0vbY4fmftvFTguje5vq5yvWJpu5mjuo5cubJ1vd9nu2XsfA+deaOqu+2yPR0mOxrkesAXePBz/alu/JhiuoAWOLY7iJxAAAOOklEQVR4nO1d2YLqKhCcIFsSddzivkRHj0Y9//97V2MWSEBAZwY813pUE0MHmqruBj4+3njjjTfeeOONN954441fxPprc97vxqHt53ALwdQjCECACFp+2n4YdxAMAPYyQIQ3HdsP5AaaS4o8BhD43bnth7KP+cbnzJIC+KvI9oPZxaRLQc0sqWlob2374exhciZis6Qjio7Gth/QDtYzH0rNkpqGbBe2H/L3cRzR+2a5mSZu/7+ITX9I1Ga5mcab/m9ME7Y9rGeWFIgOWrYf+TcQTEs2pweIya5p+7F/Gq0BMjRLapp/nQ5fSa7BIGLxL9PhzobWSa6JaVYT2034CcxlJFcf0P/36HB0ftosqWno6Gi7Kd8JJck1MA3Z/rHdnO/CcaZBck1M82/Q4T9bTZJ7abKubQh8dToctoE2yUXebEt0TfPadDiYQu2WemR3uWJBdX8OMV6+KB0OdibcH3TTi076TOdF6XCzYcbmyC2WGRgJhtejw52Nb0hbaDYutmaXvVZ0eLI3Z3MkM0xseuHrRIej1SMkl97GRPiI9qbDF6DDj5JccmtbR3ta4k0TO06H1zqRXCHQIL3B8YEek5qGxH3Lbb+H/ePcH+zTOxhM11XQXmC5+VL0HnzdV8BeeovlExocAEfJ8P4Ju3hwmN6j+0xwAowsW0CMsf9EmzwIU1nYe0qHky/bRhBh+FSbIAq/4SbYQTcTPdVhcsOMnovcYAenpsEzge6Lf7g5352+HBfe5WDZCgI85x28bTYIzk8OSLtGECA0ybryjYEAk+Sc3WeZEAzgw9ahzqntyUNc/vKKCe4t+1Ez95pBM+rvepdPH7ONe06m/YCLgSgZTSei6G04mY6SR5KWYPPrLVfAnJkBOjzdC042T8MHZHr8S+3VhjCOAgGSNQ3QvTrCFMkDOwCJBxt2LBAsDBdAvPnqCqMQwNcM10pCgdDft6dD0egljhXuLQT8Aw6voq4zrLUM0pV+FLuzqkt2EKeTj2j4ZuELZ9AQPGMW3/7oVb7DsdlbXccVdQpGtzksEHQZOPvupj0HAZWHIJuCwxFnmaRhmkUMG5zcgF4+t4v+FTkllwKRUML5colWDJkHf8QJrBlPC2ExDkUenziVNViLJA5q51+3tnmfQaP64pIgmu7jnLEG2/00qr/0z1E+nKBX2GUs/NfTD7TvYXyJJgiIipf3mXlgUhN5n/0Vohj4+SwbegBTtOrX7JeFwUBpl7lwKndLR0oUJC36TNgjFwFEq7x0fcA4FUa06CRxOlow7laHRINc3BYZFuHLhUQ1wJ9p4mOQCSUyKpo3nfWSHX/VcVvwN1p8mIeqQG0twSDpHooQ3WQmqy7xHdKRcgV5YWLloODTYlzTSsPMig8hnfHViGUfam3k2SuXdOQ9BQmQ+EEbfNOKz1fMx5A2hNcuwL0/FF9jBfcVJDnXicvE40hbliO4Ys/dC3v1Etawqwhx/GhbjaDIxAOvquzalZHA8NUKh4Z+u3JtINRIDHxndKQy4Ywqs9GyegEs59ha7Lg6nKaq9BV2RkeKFCTfbl7A7Gs8mYkv1dvt88zkoIpfuaMjRQqy8hK5t97sVS0JlsWXVUd+keJc5nWpzCO4oyPVySBacaHTSigBlQynz/cYSCo+pqmsji3Uq20Eyjg4WlavmW+59uNp8c2Y/2JYi9wofYxHHdGRQgXJG0bwCrlQAkPKIuZukO7qF35slU7GER0pVJAssPBBx7B0TaRcLsuwaOQJX73a169+qKWGUCUPs7R0DcGqcBekrC+c54aBflcS0VJ2Gc+NgnpVNh+VDqTiMNq5D2aiS83MMABXyupK//1H5WXc0JETRc+GuJxuQcULd7L4E5NZzVw56VX4ayMpHZWKHrihI1U5SIa8nQjZV64eJOkrZrzztdWQVkuAupiZ0lWVFW7kI1U5yHLyDC+/RL3K+I88jJMp88E4wSSu8J5whi89rwhgdFSjN/6BdhpD8YxeXPyyfR10YFspIQzbA760u3OqjoRmGjNmuoyq5sR3YNuijsLFMG7lNpvA2HTNyDxb4gWKztZWuF8XdKSKVZQzcZTNNxCZLROO8lkdF2xHpeeRiBj+MlQKkgp+6ZvU/i+S/LKsFvgKRREjdKCwVaEgmcYwn9aiT3KcGEdbTl6K1+FAPrKlGO2ojOuzY04ogkTgYlq46GkqjmdfR6oUZOkG+WUCNUIjRpe7fRnnniucDJ7eu+tvQMW1aDEFHfjejwUh8irCHn93uC2+UtFt6zpSpSBJ8cvqoj40UvmBsFpaA1HBgZRC0raOVFRXlnmRejgLc6PpuB0Oh1tuBAxqjoQUE72Sb1vWkUoFeZb/khkYF6dB4BU+y8zq/LaM2+wUhrGtI5UKsugV9ZoNwPiBMC+hQQwtHtQuKWNzqgCnbR25V7y48vmOfCshJITp7av8PnBbOoewVs9aMtq+wjBcd7QAoPCBoGgJ27cgIGDVZnzvomRxmGU4441HWS9Wztcqw3iJVR2pUpAiw0BMh8s1PyMxtIRUdkucTGeU5PY3MIxdHamMS1cNA4h/bgvUddnz/Pq3n4sNJmkBvYFh7OpIZQ6ybMkCQ0S8hmTv66L4AwLxP02+RoQApG8YuzpSmYMsZ6Vj0mvLuUUxyQC5VGgu9kjossTwLVK8T2VSsKTmrbvOcA5vQRdM7kYkwuImymSW1bpWdQ5Sv0Nft2zC6KT7mjUKCSzqSPU6SGJQ3nSc6UdpNDYFsKkjlQsY/Z8j5nP1YiZrTiaUrEG7ih6AMPHhT/bm6EB9gjECMpJpT0eKFSSkYNhbbb76kYp7BvN71XKdtZK7NqM/092mu8XCzmNPRwqnTHQWLAWoIpgvBochpYm8KmzqU987N9TmvaAjLLOypyNFCjLbnUyKcH6cdoeIXk/0uPw8kW2jNE9zAxBgiuPesj9RmKctXEj2UKu+AaLBjeUtCI7T/ZakJikulBJ3NqV2NQ9B513/TqZOlE+hlupahRnkmPtJwPq/MKkvHcWyGTqqVbxC9JehbGHU4SYdUe/FlrauEq6DZPYQmE9n2B+2y4LNXd0nyZPM9aAuMzROg4uDivfH0jYzQY+xpSOFuwPlq7dap2EaSYGorOJp1sK+d5RRXSWSspIovmltgjZZEHgsEie26lpXQv5AB59ha7z3C47DvLdGreqb0zPcbFYjSUxMrhhnEPij9jxsTsXEwdLSJQnvRRRQnlgUHb5ZySlwSmoyTDzWKVQ7JBPBYh0KRPQycwmfxPN/wQoCHGScvGIwpkVffAs4ChYDDybMvFNJNjJGbGnv4fMLVhBA4EvFdmLi0pxL5co504gMODP357Mnydz8jy3JyLXuzijMtgIT9mWzpYqtbDUpQ/i4vAIpOXKgu02ItUJo3b06WAr6xbSWHTjLWy/gvA6bHmAmGN0OIwof/w5EPFwIwviSVdEspnSmJIvMnMx6JFTyHWVmorjGXs5tpN1nypm4zNSzUczSkTNT7Gcx7nxmWtffqcbeRopN3U7NvrxWMWuVnzECADMVvrkNEsaE2vsQ+jZrh6JE/YC3p2Sc6mcMqhZgCD1TzpvZC7JxwFC3v1CDOOkPoK07M7GLqz7T5Z7M3kCc6mJ7V5qeoSzt0x1I2HZx+EZzNHEMJTxjLnATc/MvE5JsY3aHiA/9FwHsL//TdcCEk7q7hHEBldmNKQ8JMBmxQZVaMEIGaH8H25bupmx8xiAqCUtQzYQwNttw5mzqbozrxLqcie40kUjqD5bV0cgQQi4Y1VKv4LqBOrEs56Ov2b8hFVpGQNiIcGv0UHvUurK7Q0Ozh/MVdjmE84wgVxbUt0cTA/TqF1tCdd8yuWXqfXzyt5YVgiipb+XcjHX/xHola4lAeztVv5ZICjv9rueTa0bxAoQwxb1BPTUV6f4FtF3IymGifUoDPovScc2o/7VsHDaNwWksbJc2kfR8tw721T8YCUBzDRMctDeGJg6sVOKg3ouiAF0aOoGjpy2oOYLtBnQd8AVYskJdgvquKlLA2B3HmyOMdd2MMr9dgcEeytglx5tjrr2btWGQWjuUyetwd3DU7vJ5lE5RwpANC+2QHXFmq6EK6osixMhzk5O/575UBUcNmtVjjTVnPGR98ZYUK613C7MQ1VcMIfZHu2On4jE/o+kBU+Ch/e2Heud+sMszXEOoJX+zzbWyZaDwwnW9WXd56vePf/rtwaa3JdejCa7f4VtsQu/0EOTy2YgdLTmZvlkuzwovYgDja6kh4qqRMj2uWvxzhVCgugMNf5DFxdWl3V6Remqpf0usL5tVYKrcLDAridE79zC5eZmFcvMeM2pkA4f7bzfnpprR23x7K8VgsleHqI/w/hySlwqp1wJwLQ7ue3XkzPaad9C81+SC9OqeIEqyuebu4lCrSUd9rO+kJ/MyD9UWBAXy2qJ7qXzqyL53Spzkjcg7gPb5XXlJRCg/P91iVYMp5OnJbKm9dga6yEvK14w5egiiGNIlgVl9/07/SMlsrb/cxyAH9qPShvz9kkH4ESxNjtrEq/lHKB+dL+J4c8jlDaKe2dnpHiSJLze03WoPc9wJ6z93PCAP69Ue5tg8czKtLhyo9jDH7JnzdvUAofU9uh5A6/HTHnXtUt1x+0Xw4NGR+nCk2sMcuvUhDwLXdiJ/GRjxFVM4VO1hDoP0pCnKk9xeEcG3khbOLsTFpKM+5srjFR4Edavawxz69SFGwK5Ve5jjyTPPxXCw2sMc5+93wC4nHfWhl540souT1R7m0K8P0UTiZrWHOca6i3f0QOq1rq+Kvn6xmBqSkwBfE2Ogu/JVBWB5gdZ3Ixwgim41zo8DIUI2rxT61kPU3jWew+60/hem6TfeeOONN95444033njjjdfFf+3dxniwMyHAAAAAAElFTkSuQmCC;" vertex="1" parent="1">
          <mxGeometry x="463.33999999999986" y="577.5" width="46.66" height="30" as="geometry"/>
        </mxCell>
        <mxCell id="9fpFaIlWNL28QZtfQ_b3-93" value="" style="rounded=1;arcSize=10;dashed=1;fillColor=none;gradientColor=none;dashPattern=8 3 1 3;strokeWidth=2;" vertex="1" parent="1">
          <mxGeometry x="326" y="560" width="194" height="100" as="geometry"/>
        </mxCell>
        <mxCell id="9fpFaIlWNL28QZtfQ_b3-97" value="" style="rounded=1;arcSize=10;dashed=1;strokeColor=#F59D56;fillColor=none;gradientColor=none;dashPattern=8 4;strokeWidth=2;fontStyle=1" vertex="1" parent="1">
          <mxGeometry x="541.66" y="577.5" width="70" height="60" as="geometry"/>
        </mxCell>
        <mxCell id="9fpFaIlWNL28QZtfQ_b3-98" value="us-east-1a" style="text;html=1;strokeColor=none;fillColor=none;align=center;verticalAlign=middle;whiteSpace=wrap;rounded=0;" vertex="1" parent="1">
          <mxGeometry x="541.66" y="633.75" width="70" height="20" as="geometry"/>
        </mxCell>
        <mxCell id="9fpFaIlWNL28QZtfQ_b3-107" value="" style="outlineConnect=0;dashed=0;verticalLabelPosition=bottom;verticalAlign=top;align=center;html=1;shape=mxgraph.aws3.application_load_balancer;fillColor=#F58536;gradientColor=none;" vertex="1" parent="1">
          <mxGeometry x="416.65999999999997" y="372.79" width="41.84" height="31.79" as="geometry"/>
        </mxCell>
        <mxCell id="9fpFaIlWNL28QZtfQ_b3-108" value="" style="outlineConnect=0;dashed=0;verticalLabelPosition=bottom;verticalAlign=top;align=center;html=1;shape=mxgraph.aws3.alarm;fillColor=#759C3E;gradientColor=none;" vertex="1" parent="1">
          <mxGeometry x="447.5900000000002" y="360" width="18.33" height="20" as="geometry"/>
        </mxCell>
        <mxCell id="9fpFaIlWNL28QZtfQ_b3-110" value="blog.eks..com" style="text;html=1;strokeColor=none;fillColor=none;align=center;verticalAlign=middle;whiteSpace=wrap;rounded=0;" vertex="1" parent="1">
          <mxGeometry x="611.66" y="358.79" width="100" height="20" as="geometry"/>
        </mxCell>
        <mxCell id="9fpFaIlWNL28QZtfQ_b3-123" value="us-east-1b" style="text;html=1;strokeColor=none;fillColor=none;align=center;verticalAlign=middle;whiteSpace=wrap;rounded=0;" vertex="1" parent="1">
          <mxGeometry x="440.00000000000006" y="633.75" width="70" height="20" as="geometry"/>
        </mxCell>
        <mxCell id="9fpFaIlWNL28QZtfQ_b3-125" value="" style="rounded=1;arcSize=10;dashed=1;strokeColor=#F59D56;fillColor=none;gradientColor=none;dashPattern=8 4;strokeWidth=2;fontStyle=1" vertex="1" parent="1">
          <mxGeometry x="636.16" y="577.5" width="70" height="60" as="geometry"/>
        </mxCell>
        <mxCell id="9fpFaIlWNL28QZtfQ_b3-126" value="" style="shape=image;imageAspect=0;aspect=fixed;verticalLabelPosition=bottom;verticalAlign=top;image=data:image/png,iVBORw0KGgoAAAANSUhEUgAAARgAAAC0CAMAAAB4+cOfAAAAilBMVEX///8zbuUpaeSFo+4vbOUmaOQiZuQcZOQXYuMUYeP1+P78/f/r8Pzx9f2ovfLw9P3m7PtvlOtbh+mzxfSXsPDR3PhFeedLfefE0vbY4fmftvFTguje5vq5yvWJpu5mjuo5cubJ1vd9nu2XsfA+deaOqu+2yPR0mOxrkesAXePBz/alu/JhiuoAWOLY7iJxAAAOOklEQVR4nO1d2YLqKhCcIFsSddzivkRHj0Y9//97V2MWSEBAZwY813pUE0MHmqruBj4+3njjjTfeeOONN954441fxPprc97vxqHt53ALwdQjCECACFp+2n4YdxAMAPYyQIQ3HdsP5AaaS4o8BhD43bnth7KP+cbnzJIC+KvI9oPZxaRLQc0sqWlob2374exhciZis6Qjio7Gth/QDtYzH0rNkpqGbBe2H/L3cRzR+2a5mSZu/7+ITX9I1Ga5mcab/m9ME7Y9rGeWFIgOWrYf+TcQTEs2pweIya5p+7F/Gq0BMjRLapp/nQ5fSa7BIGLxL9PhzobWSa6JaVYT2034CcxlJFcf0P/36HB0ftosqWno6Gi7Kd8JJck1MA3Z/rHdnO/CcaZBck1M82/Q4T9bTZJ7abKubQh8dToctoE2yUXebEt0TfPadDiYQu2WemR3uWJBdX8OMV6+KB0OdibcH3TTi076TOdF6XCzYcbmyC2WGRgJhtejw52Nb0hbaDYutmaXvVZ0eLI3Z3MkM0xseuHrRIej1SMkl97GRPiI9qbDF6DDj5JccmtbR3ta4k0TO06H1zqRXCHQIL3B8YEek5qGxH3Lbb+H/ePcH+zTOxhM11XQXmC5+VL0HnzdV8BeeovlExocAEfJ8P4Ju3hwmN6j+0xwAowsW0CMsf9EmzwIU1nYe0qHky/bRhBh+FSbIAq/4SbYQTcTPdVhcsOMnovcYAenpsEzge6Lf7g5352+HBfe5WDZCgI85x28bTYIzk8OSLtGECA0ybryjYEAk+Sc3WeZEAzgw9ahzqntyUNc/vKKCe4t+1Ez95pBM+rvepdPH7ONe06m/YCLgSgZTSei6G04mY6SR5KWYPPrLVfAnJkBOjzdC042T8MHZHr8S+3VhjCOAgGSNQ3QvTrCFMkDOwCJBxt2LBAsDBdAvPnqCqMQwNcM10pCgdDft6dD0egljhXuLQT8Aw6voq4zrLUM0pV+FLuzqkt2EKeTj2j4ZuELZ9AQPGMW3/7oVb7DsdlbXccVdQpGtzksEHQZOPvupj0HAZWHIJuCwxFnmaRhmkUMG5zcgF4+t4v+FTkllwKRUML5colWDJkHf8QJrBlPC2ExDkUenziVNViLJA5q51+3tnmfQaP64pIgmu7jnLEG2/00qr/0z1E+nKBX2GUs/NfTD7TvYXyJJgiIipf3mXlgUhN5n/0Vohj4+SwbegBTtOrX7JeFwUBpl7lwKndLR0oUJC36TNgjFwFEq7x0fcA4FUa06CRxOlow7laHRINc3BYZFuHLhUQ1wJ9p4mOQCSUyKpo3nfWSHX/VcVvwN1p8mIeqQG0twSDpHooQ3WQmqy7xHdKRcgV5YWLloODTYlzTSsPMig8hnfHViGUfam3k2SuXdOQ9BQmQ+EEbfNOKz1fMx5A2hNcuwL0/FF9jBfcVJDnXicvE40hbliO4Ys/dC3v1Etawqwhx/GhbjaDIxAOvquzalZHA8NUKh4Z+u3JtINRIDHxndKQy4Ywqs9GyegEs59ha7Lg6nKaq9BV2RkeKFCTfbl7A7Gs8mYkv1dvt88zkoIpfuaMjRQqy8hK5t97sVS0JlsWXVUd+keJc5nWpzCO4oyPVySBacaHTSigBlQynz/cYSCo+pqmsji3Uq20Eyjg4WlavmW+59uNp8c2Y/2JYi9wofYxHHdGRQgXJG0bwCrlQAkPKIuZukO7qF35slU7GER0pVJAssPBBx7B0TaRcLsuwaOQJX73a169+qKWGUCUPs7R0DcGqcBekrC+c54aBflcS0VJ2Gc+NgnpVNh+VDqTiMNq5D2aiS83MMABXyupK//1H5WXc0JETRc+GuJxuQcULd7L4E5NZzVw56VX4ayMpHZWKHrihI1U5SIa8nQjZV64eJOkrZrzztdWQVkuAupiZ0lWVFW7kI1U5yHLyDC+/RL3K+I88jJMp88E4wSSu8J5whi89rwhgdFSjN/6BdhpD8YxeXPyyfR10YFspIQzbA760u3OqjoRmGjNmuoyq5sR3YNuijsLFMG7lNpvA2HTNyDxb4gWKztZWuF8XdKSKVZQzcZTNNxCZLROO8lkdF2xHpeeRiBj+MlQKkgp+6ZvU/i+S/LKsFvgKRREjdKCwVaEgmcYwn9aiT3KcGEdbTl6K1+FAPrKlGO2ojOuzY04ogkTgYlq46GkqjmdfR6oUZOkG+WUCNUIjRpe7fRnnniucDJ7eu+tvQMW1aDEFHfjejwUh8irCHn93uC2+UtFt6zpSpSBJ8cvqoj40UvmBsFpaA1HBgZRC0raOVFRXlnmRejgLc6PpuB0Oh1tuBAxqjoQUE72Sb1vWkUoFeZb/khkYF6dB4BU+y8zq/LaM2+wUhrGtI5UKsugV9ZoNwPiBMC+hQQwtHtQuKWNzqgCnbR25V7y48vmOfCshJITp7av8PnBbOoewVs9aMtq+wjBcd7QAoPCBoGgJ27cgIGDVZnzvomRxmGU4441HWS9Wztcqw3iJVR2pUpAiw0BMh8s1PyMxtIRUdkucTGeU5PY3MIxdHamMS1cNA4h/bgvUddnz/Pq3n4sNJmkBvYFh7OpIZQ6ybMkCQ0S8hmTv66L4AwLxP02+RoQApG8YuzpSmYMsZ6Vj0mvLuUUxyQC5VGgu9kjossTwLVK8T2VSsKTmrbvOcA5vQRdM7kYkwuImymSW1bpWdQ5Sv0Nft2zC6KT7mjUKCSzqSPU6SGJQ3nSc6UdpNDYFsKkjlQsY/Z8j5nP1YiZrTiaUrEG7ih6AMPHhT/bm6EB9gjECMpJpT0eKFSSkYNhbbb76kYp7BvN71XKdtZK7NqM/092mu8XCzmNPRwqnTHQWLAWoIpgvBochpYm8KmzqU987N9TmvaAjLLOypyNFCjLbnUyKcH6cdoeIXk/0uPw8kW2jNE9zAxBgiuPesj9RmKctXEj2UKu+AaLBjeUtCI7T/ZakJikulBJ3NqV2NQ9B513/TqZOlE+hlupahRnkmPtJwPq/MKkvHcWyGTqqVbxC9JehbGHU4SYdUe/FlrauEq6DZPYQmE9n2B+2y4LNXd0nyZPM9aAuMzROg4uDivfH0jYzQY+xpSOFuwPlq7dap2EaSYGorOJp1sK+d5RRXSWSspIovmltgjZZEHgsEie26lpXQv5AB59ha7z3C47DvLdGreqb0zPcbFYjSUxMrhhnEPij9jxsTsXEwdLSJQnvRRRQnlgUHb5ZySlwSmoyTDzWKVQ7JBPBYh0KRPQycwmfxPN/wQoCHGScvGIwpkVffAs4ChYDDybMvFNJNjJGbGnv4fMLVhBA4EvFdmLi0pxL5co504gMODP357Mnydz8jy3JyLXuzijMtgIT9mWzpYqtbDUpQ/i4vAIpOXKgu02ItUJo3b06WAr6xbSWHTjLWy/gvA6bHmAmGN0OIwof/w5EPFwIwviSVdEspnSmJIvMnMx6JFTyHWVmorjGXs5tpN1nypm4zNSzUczSkTNT7Gcx7nxmWtffqcbeRopN3U7NvrxWMWuVnzECADMVvrkNEsaE2vsQ+jZrh6JE/YC3p2Sc6mcMqhZgCD1TzpvZC7JxwFC3v1CDOOkPoK07M7GLqz7T5Z7M3kCc6mJ7V5qeoSzt0x1I2HZx+EZzNHEMJTxjLnATc/MvE5JsY3aHiA/9FwHsL//TdcCEk7q7hHEBldmNKQ8JMBmxQZVaMEIGaH8H25bupmx8xiAqCUtQzYQwNttw5mzqbozrxLqcie40kUjqD5bV0cgQQi4Y1VKv4LqBOrEs56Ov2b8hFVpGQNiIcGv0UHvUurK7Q0Ozh/MVdjmE84wgVxbUt0cTA/TqF1tCdd8yuWXqfXzyt5YVgiipb+XcjHX/xHola4lAeztVv5ZICjv9rueTa0bxAoQwxb1BPTUV6f4FtF3IymGifUoDPovScc2o/7VsHDaNwWksbJc2kfR8tw721T8YCUBzDRMctDeGJg6sVOKg3ouiAF0aOoGjpy2oOYLtBnQd8AVYskJdgvquKlLA2B3HmyOMdd2MMr9dgcEeytglx5tjrr2btWGQWjuUyetwd3DU7vJ5lE5RwpANC+2QHXFmq6EK6osixMhzk5O/575UBUcNmtVjjTVnPGR98ZYUK613C7MQ1VcMIfZHu2On4jE/o+kBU+Ch/e2Heud+sMszXEOoJX+zzbWyZaDwwnW9WXd56vePf/rtwaa3JdejCa7f4VtsQu/0EOTy2YgdLTmZvlkuzwovYgDja6kh4qqRMj2uWvxzhVCgugMNf5DFxdWl3V6Remqpf0usL5tVYKrcLDAridE79zC5eZmFcvMeM2pkA4f7bzfnpprR23x7K8VgsleHqI/w/hySlwqp1wJwLQ7ue3XkzPaad9C81+SC9OqeIEqyuebu4lCrSUd9rO+kJ/MyD9UWBAXy2qJ7qXzqyL53Spzkjcg7gPb5XXlJRCg/P91iVYMp5OnJbKm9dga6yEvK14w5egiiGNIlgVl9/07/SMlsrb/cxyAH9qPShvz9kkH4ESxNjtrEq/lHKB+dL+J4c8jlDaKe2dnpHiSJLze03WoPc9wJ6z93PCAP69Ue5tg8czKtLhyo9jDH7JnzdvUAofU9uh5A6/HTHnXtUt1x+0Xw4NGR+nCk2sMcuvUhDwLXdiJ/GRjxFVM4VO1hDoP0pCnKk9xeEcG3khbOLsTFpKM+5srjFR4Edavawxz69SFGwK5Ve5jjyTPPxXCw2sMc5+93wC4nHfWhl540souT1R7m0K8P0UTiZrWHOca6i3f0QOq1rq+Kvn6xmBqSkwBfE2Ogu/JVBWB5gdZ3Ixwgim41zo8DIUI2rxT61kPU3jWew+60/hem6TfeeOONN95444033njjjdfFf+3dxniwMyHAAAAAAElFTkSuQmCC;" vertex="1" parent="1">
          <mxGeometry x="668.3399999999999" y="577.5" width="46.66" height="30" as="geometry"/>
        </mxCell>
        <mxCell id="9fpFaIlWNL28QZtfQ_b3-128" value="" style="rounded=1;arcSize=10;dashed=1;fillColor=none;gradientColor=none;dashPattern=8 3 1 3;strokeWidth=2;" vertex="1" parent="1">
          <mxGeometry x="526.66" y="510" width="193.34" height="150" as="geometry"/>
        </mxCell>
        <mxCell id="9fpFaIlWNL28QZtfQ_b3-138" value="" style="outlineConnect=0;dashed=0;verticalLabelPosition=bottom;verticalAlign=top;align=center;html=1;shape=mxgraph.aws3.ec2_compute_container_2;fillColor=#F58534;gradientColor=none;" vertex="1" parent="1">
          <mxGeometry x="550" y="530" width="32.75" height="23.75" as="geometry"/>
        </mxCell>
        <mxCell id="9fpFaIlWNL28QZtfQ_b3-142" value="&lt;b&gt;K8S WORKER&lt;/b&gt;" style="text;html=1;strokeColor=none;fillColor=none;align=center;verticalAlign=middle;whiteSpace=wrap;rounded=0;" vertex="1" parent="1">
          <mxGeometry x="541.66" y="660" width="100" height="20" as="geometry"/>
        </mxCell>
        <mxCell id="9fpFaIlWNL28QZtfQ_b3-144" value="" style="outlineConnect=0;dashed=0;verticalLabelPosition=bottom;verticalAlign=top;align=center;html=1;shape=mxgraph.aws3.classic_load_balancer;fillColor=#F58534;gradientColor=none;" vertex="1" parent="1">
          <mxGeometry x="416.66" y="680" width="40" height="30" as="geometry"/>
        </mxCell>
        <mxCell id="9fpFaIlWNL28QZtfQ_b3-148" value="" style="rounded=1;arcSize=10;dashed=0;fillColor=none;gradientColor=none;strokeWidth=2;" vertex="1" parent="1">
          <mxGeometry x="133" y="437.5" width="596.33" height="282.5" as="geometry"/>
        </mxCell>
        <mxCell id="9fpFaIlWNL28QZtfQ_b3-149" value="" style="dashed=0;html=1;shape=mxgraph.aws3.permissions;fillColor=#D9A741;gradientColor=none;dashed=0;" vertex="1" parent="1">
          <mxGeometry x="134.33" y="420" width="20" height="26.79" as="geometry"/>
        </mxCell>
        <mxCell id="9fpFaIlWNL28QZtfQ_b3-150" value="" style="outlineConnect=0;dashed=0;verticalLabelPosition=bottom;verticalAlign=top;align=center;html=1;shape=mxgraph.aws3.auto_scaling;fillColor=#F58534;gradientColor=none;" vertex="1" parent="1">
          <mxGeometry x="280" y="530" width="41.5" height="30.5" as="geometry"/>
        </mxCell>
        <mxCell id="9fpFaIlWNL28QZtfQ_b3-151" value="" style="outlineConnect=0;dashed=0;verticalLabelPosition=bottom;verticalAlign=top;align=center;html=1;shape=mxgraph.aws3.auto_scaling;fillColor=#F58534;gradientColor=none;" vertex="1" parent="1">
          <mxGeometry x="465.91999999999996" y="529.5" width="41.5" height="30.5" as="geometry"/>
        </mxCell>
        <mxCell id="9fpFaIlWNL28QZtfQ_b3-152" value="" style="outlineConnect=0;dashed=0;verticalLabelPosition=bottom;verticalAlign=top;align=center;html=1;shape=mxgraph.aws3.auto_scaling;fillColor=#F58534;gradientColor=none;" vertex="1" parent="1">
          <mxGeometry x="505.25" y="494" width="31.42" height="26" as="geometry"/>
        </mxCell>
        <mxCell id="9fpFaIlWNL28QZtfQ_b3-156" value="" style="shape=image;imageAspect=0;aspect=fixed;verticalLabelPosition=bottom;verticalAlign=top;image=data:image/png,iVBORw0KGgoAAAANSUhEUgAAARgAAAC0CAMAAAB4+cOfAAAAilBMVEX///8zbuUpaeSFo+4vbOUmaOQiZuQcZOQXYuMUYeP1+P78/f/r8Pzx9f2ovfLw9P3m7PtvlOtbh+mzxfSXsPDR3PhFeedLfefE0vbY4fmftvFTguje5vq5yvWJpu5mjuo5cubJ1vd9nu2XsfA+deaOqu+2yPR0mOxrkesAXePBz/alu/JhiuoAWOLY7iJxAAAOOklEQVR4nO1d2YLqKhCcIFsSddzivkRHj0Y9//97V2MWSEBAZwY813pUE0MHmqruBj4+3njjjTfeeOONN954441fxPprc97vxqHt53ALwdQjCECACFp+2n4YdxAMAPYyQIQ3HdsP5AaaS4o8BhD43bnth7KP+cbnzJIC+KvI9oPZxaRLQc0sqWlob2374exhciZis6Qjio7Gth/QDtYzH0rNkpqGbBe2H/L3cRzR+2a5mSZu/7+ITX9I1Ga5mcab/m9ME7Y9rGeWFIgOWrYf+TcQTEs2pweIya5p+7F/Gq0BMjRLapp/nQ5fSa7BIGLxL9PhzobWSa6JaVYT2034CcxlJFcf0P/36HB0ftosqWno6Gi7Kd8JJck1MA3Z/rHdnO/CcaZBck1M82/Q4T9bTZJ7abKubQh8dToctoE2yUXebEt0TfPadDiYQu2WemR3uWJBdX8OMV6+KB0OdibcH3TTi076TOdF6XCzYcbmyC2WGRgJhtejw52Nb0hbaDYutmaXvVZ0eLI3Z3MkM0xseuHrRIej1SMkl97GRPiI9qbDF6DDj5JccmtbR3ta4k0TO06H1zqRXCHQIL3B8YEek5qGxH3Lbb+H/ePcH+zTOxhM11XQXmC5+VL0HnzdV8BeeovlExocAEfJ8P4Ju3hwmN6j+0xwAowsW0CMsf9EmzwIU1nYe0qHky/bRhBh+FSbIAq/4SbYQTcTPdVhcsOMnovcYAenpsEzge6Lf7g5352+HBfe5WDZCgI85x28bTYIzk8OSLtGECA0ybryjYEAk+Sc3WeZEAzgw9ahzqntyUNc/vKKCe4t+1Ez95pBM+rvepdPH7ONe06m/YCLgSgZTSei6G04mY6SR5KWYPPrLVfAnJkBOjzdC042T8MHZHr8S+3VhjCOAgGSNQ3QvTrCFMkDOwCJBxt2LBAsDBdAvPnqCqMQwNcM10pCgdDft6dD0egljhXuLQT8Aw6voq4zrLUM0pV+FLuzqkt2EKeTj2j4ZuELZ9AQPGMW3/7oVb7DsdlbXccVdQpGtzksEHQZOPvupj0HAZWHIJuCwxFnmaRhmkUMG5zcgF4+t4v+FTkllwKRUML5colWDJkHf8QJrBlPC2ExDkUenziVNViLJA5q51+3tnmfQaP64pIgmu7jnLEG2/00qr/0z1E+nKBX2GUs/NfTD7TvYXyJJgiIipf3mXlgUhN5n/0Vohj4+SwbegBTtOrX7JeFwUBpl7lwKndLR0oUJC36TNgjFwFEq7x0fcA4FUa06CRxOlow7laHRINc3BYZFuHLhUQ1wJ9p4mOQCSUyKpo3nfWSHX/VcVvwN1p8mIeqQG0twSDpHooQ3WQmqy7xHdKRcgV5YWLloODTYlzTSsPMig8hnfHViGUfam3k2SuXdOQ9BQmQ+EEbfNOKz1fMx5A2hNcuwL0/FF9jBfcVJDnXicvE40hbliO4Ys/dC3v1Etawqwhx/GhbjaDIxAOvquzalZHA8NUKh4Z+u3JtINRIDHxndKQy4Ywqs9GyegEs59ha7Lg6nKaq9BV2RkeKFCTfbl7A7Gs8mYkv1dvt88zkoIpfuaMjRQqy8hK5t97sVS0JlsWXVUd+keJc5nWpzCO4oyPVySBacaHTSigBlQynz/cYSCo+pqmsji3Uq20Eyjg4WlavmW+59uNp8c2Y/2JYi9wofYxHHdGRQgXJG0bwCrlQAkPKIuZukO7qF35slU7GER0pVJAssPBBx7B0TaRcLsuwaOQJX73a169+qKWGUCUPs7R0DcGqcBekrC+c54aBflcS0VJ2Gc+NgnpVNh+VDqTiMNq5D2aiS83MMABXyupK//1H5WXc0JETRc+GuJxuQcULd7L4E5NZzVw56VX4ayMpHZWKHrihI1U5SIa8nQjZV64eJOkrZrzztdWQVkuAupiZ0lWVFW7kI1U5yHLyDC+/RL3K+I88jJMp88E4wSSu8J5whi89rwhgdFSjN/6BdhpD8YxeXPyyfR10YFspIQzbA760u3OqjoRmGjNmuoyq5sR3YNuijsLFMG7lNpvA2HTNyDxb4gWKztZWuF8XdKSKVZQzcZTNNxCZLROO8lkdF2xHpeeRiBj+MlQKkgp+6ZvU/i+S/LKsFvgKRREjdKCwVaEgmcYwn9aiT3KcGEdbTl6K1+FAPrKlGO2ojOuzY04ogkTgYlq46GkqjmdfR6oUZOkG+WUCNUIjRpe7fRnnniucDJ7eu+tvQMW1aDEFHfjejwUh8irCHn93uC2+UtFt6zpSpSBJ8cvqoj40UvmBsFpaA1HBgZRC0raOVFRXlnmRejgLc6PpuB0Oh1tuBAxqjoQUE72Sb1vWkUoFeZb/khkYF6dB4BU+y8zq/LaM2+wUhrGtI5UKsugV9ZoNwPiBMC+hQQwtHtQuKWNzqgCnbR25V7y48vmOfCshJITp7av8PnBbOoewVs9aMtq+wjBcd7QAoPCBoGgJ27cgIGDVZnzvomRxmGU4441HWS9Wztcqw3iJVR2pUpAiw0BMh8s1PyMxtIRUdkucTGeU5PY3MIxdHamMS1cNA4h/bgvUddnz/Pq3n4sNJmkBvYFh7OpIZQ6ybMkCQ0S8hmTv66L4AwLxP02+RoQApG8YuzpSmYMsZ6Vj0mvLuUUxyQC5VGgu9kjossTwLVK8T2VSsKTmrbvOcA5vQRdM7kYkwuImymSW1bpWdQ5Sv0Nft2zC6KT7mjUKCSzqSPU6SGJQ3nSc6UdpNDYFsKkjlQsY/Z8j5nP1YiZrTiaUrEG7ih6AMPHhT/bm6EB9gjECMpJpT0eKFSSkYNhbbb76kYp7BvN71XKdtZK7NqM/092mu8XCzmNPRwqnTHQWLAWoIpgvBochpYm8KmzqU987N9TmvaAjLLOypyNFCjLbnUyKcH6cdoeIXk/0uPw8kW2jNE9zAxBgiuPesj9RmKctXEj2UKu+AaLBjeUtCI7T/ZakJikulBJ3NqV2NQ9B513/TqZOlE+hlupahRnkmPtJwPq/MKkvHcWyGTqqVbxC9JehbGHU4SYdUe/FlrauEq6DZPYQmE9n2B+2y4LNXd0nyZPM9aAuMzROg4uDivfH0jYzQY+xpSOFuwPlq7dap2EaSYGorOJp1sK+d5RRXSWSspIovmltgjZZEHgsEie26lpXQv5AB59ha7z3C47DvLdGreqb0zPcbFYjSUxMrhhnEPij9jxsTsXEwdLSJQnvRRRQnlgUHb5ZySlwSmoyTDzWKVQ7JBPBYh0KRPQycwmfxPN/wQoCHGScvGIwpkVffAs4ChYDDybMvFNJNjJGbGnv4fMLVhBA4EvFdmLi0pxL5co504gMODP357Mnydz8jy3JyLXuzijMtgIT9mWzpYqtbDUpQ/i4vAIpOXKgu02ItUJo3b06WAr6xbSWHTjLWy/gvA6bHmAmGN0OIwof/w5EPFwIwviSVdEspnSmJIvMnMx6JFTyHWVmorjGXs5tpN1nypm4zNSzUczSkTNT7Gcx7nxmWtffqcbeRopN3U7NvrxWMWuVnzECADMVvrkNEsaE2vsQ+jZrh6JE/YC3p2Sc6mcMqhZgCD1TzpvZC7JxwFC3v1CDOOkPoK07M7GLqz7T5Z7M3kCc6mJ7V5qeoSzt0x1I2HZx+EZzNHEMJTxjLnATc/MvE5JsY3aHiA/9FwHsL//TdcCEk7q7hHEBldmNKQ8JMBmxQZVaMEIGaH8H25bupmx8xiAqCUtQzYQwNttw5mzqbozrxLqcie40kUjqD5bV0cgQQi4Y1VKv4LqBOrEs56Ov2b8hFVpGQNiIcGv0UHvUurK7Q0Ozh/MVdjmE84wgVxbUt0cTA/TqF1tCdd8yuWXqfXzyt5YVgiipb+XcjHX/xHola4lAeztVv5ZICjv9rueTa0bxAoQwxb1BPTUV6f4FtF3IymGifUoDPovScc2o/7VsHDaNwWksbJc2kfR8tw721T8YCUBzDRMctDeGJg6sVOKg3ouiAF0aOoGjpy2oOYLtBnQd8AVYskJdgvquKlLA2B3HmyOMdd2MMr9dgcEeytglx5tjrr2btWGQWjuUyetwd3DU7vJ5lE5RwpANC+2QHXFmq6EK6osixMhzk5O/575UBUcNmtVjjTVnPGR98ZYUK613C7MQ1VcMIfZHu2On4jE/o+kBU+Ch/e2Heud+sMszXEOoJX+zzbWyZaDwwnW9WXd56vePf/rtwaa3JdejCa7f4VtsQu/0EOTy2YgdLTmZvlkuzwovYgDja6kh4qqRMj2uWvxzhVCgugMNf5DFxdWl3V6Remqpf0usL5tVYKrcLDAridE79zC5eZmFcvMeM2pkA4f7bzfnpprR23x7K8VgsleHqI/w/hySlwqp1wJwLQ7ue3XkzPaad9C81+SC9OqeIEqyuebu4lCrSUd9rO+kJ/MyD9UWBAXy2qJ7qXzqyL53Spzkjcg7gPb5XXlJRCg/P91iVYMp5OnJbKm9dga6yEvK14w5egiiGNIlgVl9/07/SMlsrb/cxyAH9qPShvz9kkH4ESxNjtrEq/lHKB+dL+J4c8jlDaKe2dnpHiSJLze03WoPc9wJ6z93PCAP69Ue5tg8czKtLhyo9jDH7JnzdvUAofU9uh5A6/HTHnXtUt1x+0Xw4NGR+nCk2sMcuvUhDwLXdiJ/GRjxFVM4VO1hDoP0pCnKk9xeEcG3khbOLsTFpKM+5srjFR4Edavawxz69SFGwK5Ve5jjyTPPxXCw2sMc5+93wC4nHfWhl540souT1R7m0K8P0UTiZrWHOca6i3f0QOq1rq+Kvn6xmBqSkwBfE2Ogu/JVBWB5gdZ3Ixwgim41zo8DIUI2rxT61kPU3jWew+60/hem6TfeeOONN95444033njjjdfFf+3dxniwMyHAAAAAAElFTkSuQmCC;" vertex="1" parent="1">
          <mxGeometry x="601.66" y="453.31" width="40" height="25.71" as="geometry"/>
        </mxCell>
        <mxCell id="9fpFaIlWNL28QZtfQ_b3-157" value="nginx-ingress" style="text;html=1;strokeColor=none;fillColor=none;align=center;verticalAlign=middle;whiteSpace=wrap;rounded=0;" vertex="1" parent="1">
          <mxGeometry x="538.3299999999999" y="480" width="100" height="20" as="geometry"/>
        </mxCell>
        <mxCell id="9fpFaIlWNL28QZtfQ_b3-158" value="" style="outlineConnect=0;dashed=0;verticalLabelPosition=bottom;verticalAlign=top;align=center;html=1;shape=mxgraph.aws3.elastic_beanstalk;fillColor=#F58534;gradientColor=none;" vertex="1" parent="1">
          <mxGeometry x="638.33" y="377.04" width="21.93" height="23.5" as="geometry"/>
        </mxCell>
        <mxCell id="9fpFaIlWNL28QZtfQ_b3-164" value="app-1" style="text;html=1;strokeColor=none;fillColor=none;align=center;verticalAlign=middle;whiteSpace=wrap;rounded=0;" vertex="1" parent="1">
          <mxGeometry x="547.42" y="553.75" width="40" height="20" as="geometry"/>
        </mxCell>
        <mxCell id="9fpFaIlWNL28QZtfQ_b3-165" value="app-2" style="text;html=1;strokeColor=none;fillColor=none;align=center;verticalAlign=middle;whiteSpace=wrap;rounded=0;" vertex="1" parent="1">
          <mxGeometry x="601.66" y="553.75" width="40" height="20" as="geometry"/>
        </mxCell>
        <mxCell id="9fpFaIlWNL28QZtfQ_b3-166" value="" style="outlineConnect=0;dashed=0;verticalLabelPosition=bottom;verticalAlign=top;align=center;html=1;shape=mxgraph.aws3.ec2_compute_container_2;fillColor=#F58534;gradientColor=none;" vertex="1" parent="1">
          <mxGeometry x="607.42" y="530.5" width="32.75" height="23.75" as="geometry"/>
        </mxCell>
        <mxCell id="9fpFaIlWNL28QZtfQ_b3-167" value="app-3" style="text;html=1;strokeColor=none;fillColor=none;align=center;verticalAlign=middle;whiteSpace=wrap;rounded=0;" vertex="1" parent="1">
          <mxGeometry x="651.16" y="553.75" width="40" height="20" as="geometry"/>
        </mxCell>
        <mxCell id="9fpFaIlWNL28QZtfQ_b3-169" value="" style="outlineConnect=0;dashed=0;verticalLabelPosition=bottom;verticalAlign=top;align=center;html=1;shape=mxgraph.aws3.ec2_compute_container_2;fillColor=#F58534;gradientColor=none;" vertex="1" parent="1">
          <mxGeometry x="651.16" y="529.5" width="32.75" height="23.75" as="geometry"/>
        </mxCell>
        <mxCell id="9fpFaIlWNL28QZtfQ_b3-170" value="" style="outlineConnect=0;dashed=0;verticalLabelPosition=bottom;verticalAlign=top;align=center;html=1;shape=mxgraph.aws3.dynamo_db;fillColor=#2E73B8;gradientColor=none;" vertex="1" parent="1">
          <mxGeometry x="668.3399999999999" y="462.00000000000006" width="30" height="31.88" as="geometry"/>
        </mxCell>
        <mxCell id="9fpFaIlWNL28QZtfQ_b3-172" value="" style="endArrow=classic;html=1;" edge="1" parent="1">
          <mxGeometry width="50" height="50" relative="1" as="geometry">
            <mxPoint x="621.16" y="510" as="sourcePoint"/>
            <mxPoint x="621" y="490" as="targetPoint"/>
          </mxGeometry>
        </mxCell>
        <mxCell id="9fpFaIlWNL28QZtfQ_b3-174" value="" style="rounded=1;whiteSpace=wrap;html=1;fillColor=none;" vertex="1" parent="1">
          <mxGeometry x="544.42" y="520" width="145.58" height="52.38" as="geometry"/>
        </mxCell>
        <mxCell id="9fpFaIlWNL28QZtfQ_b3-175" value="" style="endArrow=classic;html=1;" edge="1" parent="1">
          <mxGeometry width="50" height="50" relative="1" as="geometry">
            <mxPoint x="435.67" y="680" as="sourcePoint"/>
            <mxPoint x="435.67" y="660" as="targetPoint"/>
          </mxGeometry>
        </mxCell>
        <mxCell id="9fpFaIlWNL28QZtfQ_b3-178" value="&lt;font style=&quot;font-size: 10px&quot;&gt;&lt;b&gt;dynamo-db&lt;/b&gt;&lt;/font&gt;" style="text;html=1;strokeColor=none;fillColor=none;align=center;verticalAlign=middle;whiteSpace=wrap;rounded=0;" vertex="1" parent="1">
          <mxGeometry x="638.33" y="442" width="100" height="20" as="geometry"/>
        </mxCell>
        <mxCell id="9fpFaIlWNL28QZtfQ_b3-179" value="ssl" style="text;html=1;strokeColor=none;fillColor=none;align=center;verticalAlign=middle;whiteSpace=wrap;rounded=0;" vertex="1" parent="1">
          <mxGeometry x="565" y="468.00000000000006" width="40" height="20" as="geometry"/>
        </mxCell>
        <mxCell id="9fpFaIlWNL28QZtfQ_b3-192" value="&lt;font style=&quot;font-size: 10px&quot;&gt;&lt;b&gt;HTTPS&lt;/b&gt;&lt;/font&gt;" style="text;html=1;strokeColor=none;fillColor=none;align=center;verticalAlign=middle;whiteSpace=wrap;rounded=0;" vertex="1" parent="1">
          <mxGeometry x="443.4200000000001" y="395.17" width="69" height="10.25" as="geometry"/>
        </mxCell>
        <mxCell id="9fpFaIlWNL28QZtfQ_b3-193" value="" style="rounded=1;arcSize=10;dashed=0;fillColor=none;gradientColor=none;strokeWidth=2;" vertex="1" parent="1">
          <mxGeometry x="118.33" y="329.5" width="736.67" height="411.5" as="geometry"/>
        </mxCell>
        <mxCell id="9fpFaIlWNL28QZtfQ_b3-194" value="" style="dashed=0;html=1;shape=mxgraph.aws3.virtual_private_cloud;fillColor=#F58536;gradientColor=none;dashed=0;" vertex="1" parent="1">
          <mxGeometry x="129" y="320.51" width="52" height="36" as="geometry"/>
        </mxCell>
        <mxCell id="9fpFaIlWNL28QZtfQ_b3-195" value="private subnet" style="text;html=1;strokeColor=none;fillColor=none;align=center;verticalAlign=middle;whiteSpace=wrap;rounded=0;" vertex="1" parent="1">
          <mxGeometry x="138.32999999999998" y="437" width="100" height="20" as="geometry"/>
        </mxCell>
        <mxCell id="9fpFaIlWNL28QZtfQ_b3-197" value="" style="outlineConnect=0;dashed=0;verticalLabelPosition=bottom;verticalAlign=top;align=center;html=1;shape=mxgraph.aws3.bucket;fillColor=#E05243;gradientColor=none;" vertex="1" parent="1">
          <mxGeometry x="233.07999999999998" y="378.79" width="20" height="20" as="geometry"/>
        </mxCell>
        <mxCell id="9fpFaIlWNL28QZtfQ_b3-199" value="Backup of etcd in s3" style="text;html=1;strokeColor=none;fillColor=none;align=center;verticalAlign=middle;whiteSpace=wrap;rounded=0;" vertex="1" parent="1">
          <mxGeometry x="181" y="356.54" width="128" height="20" as="geometry"/>
        </mxCell>
        <mxCell id="9fpFaIlWNL28QZtfQ_b3-200" value="AWS WAF" style="outlineConnect=0;fontColor=#232F3E;gradientColor=none;strokeColor=#ffffff;fillColor=#232F3E;dashed=0;verticalLabelPosition=middle;verticalAlign=bottom;align=center;html=1;whiteSpace=wrap;fontSize=10;fontStyle=1;spacing=3;shape=mxgraph.aws4.productIcon;prIcon=mxgraph.aws4.waf;" vertex="1" parent="1">
          <mxGeometry x="568.5" y="372.3" width="33" height="56" as="geometry"/>
        </mxCell>
        <mxCell id="9fpFaIlWNL28QZtfQ_b3-205" value="" style="outlineConnect=0;dashed=0;verticalLabelPosition=bottom;verticalAlign=top;align=center;html=1;shape=mxgraph.aws3.cloudfront;fillColor=#F58536;gradientColor=none;" vertex="1" parent="1">
          <mxGeometry x="505.25" y="370.94000000000005" width="25.33" height="33.64" as="geometry"/>
        </mxCell>
        <mxCell id="9fpFaIlWNL28QZtfQ_b3-207" value="" style="edgeStyle=elbowEdgeStyle;elbow=vertical;endArrow=classic;html=1;" edge="1" parent="1" target="9fpFaIlWNL28QZtfQ_b3-107">
          <mxGeometry width="50" height="50" relative="1" as="geometry">
            <mxPoint x="611.66" y="446.79" as="sourcePoint"/>
            <mxPoint x="661.66" y="396.79" as="targetPoint"/>
          </mxGeometry>
        </mxCell>
        <mxCell id="9fpFaIlWNL28QZtfQ_b3-211" value="" style="rounded=1;arcSize=10;dashed=0;fillColor=none;gradientColor=none;strokeWidth=2;" vertex="1" parent="1">
          <mxGeometry x="395" y="356.51" width="308" height="71.79" as="geometry"/>
        </mxCell>
        <mxCell id="9fpFaIlWNL28QZtfQ_b3-212" value="" style="dashed=0;html=1;shape=mxgraph.aws3.permissions;fillColor=#D9A741;gradientColor=none;dashed=0;" vertex="1" parent="1">
          <mxGeometry x="382.08000000000004" y="342" width="22.5" height="26.54" as="geometry"/>
        </mxCell>
        <mxCell id="9fpFaIlWNL28QZtfQ_b3-215" value="public subnet" style="text;html=1;strokeColor=none;fillColor=none;align=center;verticalAlign=middle;whiteSpace=wrap;rounded=0;" vertex="1" parent="1">
          <mxGeometry x="390.15999999999997" y="336.53999999999996" width="100" height="20" as="geometry"/>
        </mxCell>
        <mxCell id="9fpFaIlWNL28QZtfQ_b3-216" value="" style="endArrow=classic;html=1;" edge="1" parent="1">
          <mxGeometry width="50" height="50" relative="1" as="geometry">
            <mxPoint x="463.34" y="388.29" as="sourcePoint"/>
            <mxPoint x="493.34" y="388.29" as="targetPoint"/>
          </mxGeometry>
        </mxCell>
        <mxCell id="9fpFaIlWNL28QZtfQ_b3-217" value="&lt;b&gt;Alb&lt;/b&gt;" style="text;html=1;strokeColor=none;fillColor=none;align=center;verticalAlign=middle;whiteSpace=wrap;rounded=0;" vertex="1" parent="1">
          <mxGeometry x="399" y="394.54" width="37.67" height="20" as="geometry"/>
        </mxCell>
        <mxCell id="9fpFaIlWNL28QZtfQ_b3-218" value="&lt;b&gt;&lt;font style=&quot;font-size: 10px&quot;&gt;Cloudfront&lt;/font&gt;&lt;/b&gt;" style="text;html=1;strokeColor=none;fillColor=none;align=center;verticalAlign=middle;whiteSpace=wrap;rounded=0;" vertex="1" parent="1">
          <mxGeometry x="482.3299999999999" y="398.79" width="67.67" height="20" as="geometry"/>
        </mxCell>
        <mxCell id="9fpFaIlWNL28QZtfQ_b3-219" value="" style="endArrow=classic;html=1;" edge="1" parent="1">
          <mxGeometry width="50" height="50" relative="1" as="geometry">
            <mxPoint x="535" y="387.26" as="sourcePoint"/>
            <mxPoint x="565" y="387.26" as="targetPoint"/>
          </mxGeometry>
        </mxCell>
        <mxCell id="9fpFaIlWNL28QZtfQ_b3-222" value="" style="endArrow=classic;html=1;" edge="1" parent="1">
          <mxGeometry width="50" height="50" relative="1" as="geometry">
            <mxPoint x="604.98" y="388.29" as="sourcePoint"/>
            <mxPoint x="634.98" y="388.29" as="targetPoint"/>
          </mxGeometry>
        </mxCell>
        <mxCell id="9fpFaIlWNL28QZtfQ_b3-224" value="internal lb" style="text;html=1;strokeColor=none;fillColor=none;align=center;verticalAlign=middle;whiteSpace=wrap;rounded=0;" vertex="1" parent="1">
          <mxGeometry x="436.66999999999996" y="680" width="100" height="20" as="geometry"/>
        </mxCell>
        <mxCell id="9fpFaIlWNL28QZtfQ_b3-226" value="" style="endArrow=classic;html=1;" edge="1" parent="1">
          <mxGeometry width="50" height="50" relative="1" as="geometry">
            <mxPoint x="242.33" y="558.79" as="sourcePoint"/>
            <mxPoint x="242.33" y="398.78999999999996" as="targetPoint"/>
          </mxGeometry>
        </mxCell>
        <mxCell id="9fpFaIlWNL28QZtfQ_b3-228" value="" style="edgeStyle=segmentEdgeStyle;endArrow=classic;html=1;" edge="1" parent="1">
          <mxGeometry width="50" height="50" relative="1" as="geometry">
            <mxPoint x="410" y="700" as="sourcePoint"/>
            <mxPoint x="270" y="670" as="targetPoint"/>
          </mxGeometry>
        </mxCell>
        <mxCell id="9fpFaIlWNL28QZtfQ_b3-229" value="" style="edgeStyle=segmentEdgeStyle;endArrow=classic;html=1;" edge="1" parent="1">
          <mxGeometry width="50" height="50" relative="1" as="geometry">
            <mxPoint x="460" y="700" as="sourcePoint"/>
            <mxPoint x="670" y="670" as="targetPoint"/>
            <Array as="points">
              <mxPoint x="670" y="700"/>
              <mxPoint x="670" y="690"/>
            </Array>
          </mxGeometry>
        </mxCell>
        <mxCell id="9fpFaIlWNL28QZtfQ_b3-230" value="" style="outlineConnect=0;dashed=0;verticalLabelPosition=bottom;verticalAlign=top;align=center;html=1;shape=mxgraph.aws3.ecr;fillColor=#F58534;gradientColor=none;" vertex="1" parent="1">
          <mxGeometry x="525" y="446.54" width="35" height="39" as="geometry"/>
        </mxCell>
        <mxCell id="9fpFaIlWNL28QZtfQ_b3-231" value="ecr" style="text;html=1;strokeColor=none;fillColor=none;align=center;verticalAlign=middle;whiteSpace=wrap;rounded=0;" vertex="1" parent="1">
          <mxGeometry x="492.5" y="453.31" width="39" height="20" as="geometry"/>
        </mxCell>
        <mxCell id="9fpFaIlWNL28QZtfQ_b3-234" value="" style="endArrow=classic;html=1;" edge="1" parent="1">
          <mxGeometry width="50" height="50" relative="1" as="geometry">
            <mxPoint x="544.42" y="505.53999999999996" as="sourcePoint"/>
            <mxPoint x="544.42" y="485.53999999999996" as="targetPoint"/>
          </mxGeometry>
        </mxCell>
        <mxCell id="9fpFaIlWNL28QZtfQ_b3-251" value="" style="outlineConnect=0;dashed=0;verticalLabelPosition=bottom;verticalAlign=top;align=center;html=1;shape=mxgraph.aws3.cloudtrail;fillColor=#759C3E;gradientColor=none;" vertex="1" parent="1">
          <mxGeometry x="759.6700000000001" y="677.5" width="26.5" height="25" as="geometry"/>
        </mxCell>
        <mxCell id="9fpFaIlWNL28QZtfQ_b3-252" value="" style="outlineConnect=0;dashed=0;verticalLabelPosition=bottom;verticalAlign=top;align=center;html=1;shape=mxgraph.aws3.cloudwatch;fillColor=#759C3E;gradientColor=none;" vertex="1" parent="1">
          <mxGeometry x="761.83" y="607.5" width="30" height="21" as="geometry"/>
        </mxCell>
        <mxCell id="9fpFaIlWNL28QZtfQ_b3-254" value="" style="outlineConnect=0;dashed=0;verticalLabelPosition=bottom;verticalAlign=top;align=center;html=1;shape=mxgraph.aws3.kinesis_streams;fillColor=#F58534;gradientColor=none;" vertex="1" parent="1">
          <mxGeometry x="757.1700000000001" y="539.5" width="29" height="21" as="geometry"/>
        </mxCell>
        <mxCell id="9fpFaIlWNL28QZtfQ_b3-258" value="" style="outlineConnect=0;dashed=0;verticalLabelPosition=bottom;verticalAlign=top;align=center;html=1;shape=mxgraph.aws3.kinesis_firehose;fillColor=#F58534;gradientColor=none;" vertex="1" parent="1">
          <mxGeometry x="757.1700000000001" y="372.79" width="29" height="32" as="geometry"/>
        </mxCell>
        <mxCell id="9fpFaIlWNL28QZtfQ_b3-262" value="" style="outlineConnect=0;dashed=0;verticalLabelPosition=bottom;verticalAlign=top;align=center;html=1;shape=mxgraph.aws3.kinesis_analytics;fillColor=#F58534;gradientColor=none;" vertex="1" parent="1">
          <mxGeometry x="750.5000000000001" y="453.75" width="37.83" height="40.25" as="geometry"/>
        </mxCell>
        <mxCell id="9fpFaIlWNL28QZtfQ_b3-264" value="&lt;font size=&quot;1&quot;&gt;&lt;b style=&quot;font-size: 9px&quot;&gt;Cloudtrail&lt;/b&gt;&lt;/font&gt;" style="text;html=1;strokeColor=none;fillColor=none;align=center;verticalAlign=middle;whiteSpace=wrap;rounded=0;" vertex="1" parent="1">
          <mxGeometry x="747" y="700" width="63" height="20" as="geometry"/>
        </mxCell>
        <mxCell id="9fpFaIlWNL28QZtfQ_b3-265" value="&lt;font size=&quot;1&quot;&gt;&lt;b style=&quot;font-size: 9px&quot;&gt;Cloudwatch&lt;/b&gt;&lt;/font&gt;" style="text;html=1;strokeColor=none;fillColor=none;align=center;verticalAlign=middle;whiteSpace=wrap;rounded=0;" vertex="1" parent="1">
          <mxGeometry x="747" y="633.75" width="63" height="20" as="geometry"/>
        </mxCell>
        <mxCell id="9fpFaIlWNL28QZtfQ_b3-272" value="&lt;font style=&quot;font-size: 9px&quot;&gt;&lt;b&gt;Kinesis &lt;br&gt;Streams&lt;/b&gt;&lt;/font&gt;" style="text;html=1;strokeColor=none;fillColor=none;align=center;verticalAlign=middle;whiteSpace=wrap;rounded=0;" vertex="1" parent="1">
          <mxGeometry x="747.9200000000001" y="559.75" width="50" height="32.75" as="geometry"/>
        </mxCell>
        <mxCell id="9fpFaIlWNL28QZtfQ_b3-273" value="&lt;font style=&quot;font-size: 9px&quot;&gt;&lt;b&gt;Kinesis &lt;br&gt;Analytics&lt;br&gt;&lt;/b&gt;&lt;/font&gt;" style="text;html=1;strokeColor=none;fillColor=none;align=center;verticalAlign=middle;whiteSpace=wrap;rounded=0;" vertex="1" parent="1">
          <mxGeometry x="747.9200000000002" y="490.63" width="50" height="32.75" as="geometry"/>
        </mxCell>
        <mxCell id="9fpFaIlWNL28QZtfQ_b3-278" value="" style="endArrow=classic;html=1;" edge="1" parent="1">
          <mxGeometry width="50" height="50" relative="1" as="geometry">
            <mxPoint x="772.42" y="605.56" as="sourcePoint"/>
            <mxPoint x="773" y="589" as="targetPoint"/>
            <Array as="points"/>
          </mxGeometry>
        </mxCell>
        <mxCell id="9fpFaIlWNL28QZtfQ_b3-281" value="" style="endArrow=classic;html=1;" edge="1" parent="1">
          <mxGeometry width="50" height="50" relative="1" as="geometry">
            <mxPoint x="772.4200000000001" y="670.31" as="sourcePoint"/>
            <mxPoint x="773" y="653.75" as="targetPoint"/>
            <Array as="points"/>
          </mxGeometry>
        </mxCell>
        <mxCell id="9fpFaIlWNL28QZtfQ_b3-285" value="" style="endArrow=classic;html=1;" edge="1" parent="1">
          <mxGeometry width="50" height="50" relative="1" as="geometry">
            <mxPoint x="771.1700000000001" y="536.56" as="sourcePoint"/>
            <mxPoint x="771.75" y="520" as="targetPoint"/>
            <Array as="points"/>
          </mxGeometry>
        </mxCell>
        <mxCell id="9fpFaIlWNL28QZtfQ_b3-286" value="&lt;font style=&quot;font-size: 9px&quot;&gt;&lt;b&gt;Kinesis &lt;br&gt;Firehose&lt;br&gt;&lt;/b&gt;&lt;/font&gt;" style="text;html=1;strokeColor=none;fillColor=none;align=center;verticalAlign=middle;whiteSpace=wrap;rounded=0;" vertex="1" parent="1">
          <mxGeometry x="747.92" y="405.42" width="50" height="31.58" as="geometry"/>
        </mxCell>
        <mxCell id="9fpFaIlWNL28QZtfQ_b3-290" value="" style="endArrow=classic;html=1;" edge="1" parent="1">
          <mxGeometry width="50" height="50" relative="1" as="geometry">
            <mxPoint x="768.9100000000001" y="449.09999999999997" as="sourcePoint"/>
            <mxPoint x="769.49" y="432.54" as="targetPoint"/>
            <Array as="points"/>
          </mxGeometry>
        </mxCell>
        <mxCell id="9fpFaIlWNL28QZtfQ_b3-292" value="" style="outlineConnect=0;dashed=0;verticalLabelPosition=bottom;verticalAlign=top;align=center;html=1;shape=mxgraph.aws3.lambda_function;fillColor=#F58534;gradientColor=none;" vertex="1" parent="1">
          <mxGeometry x="742.16" y="391.8" width="31" height="17" as="geometry"/>
        </mxCell>
        <mxCell id="9fpFaIlWNL28QZtfQ_b3-293" value="" style="endArrow=classic;html=1;exitX=0;exitY=0.25;exitDx=0;exitDy=0;" edge="1" parent="1" source="9fpFaIlWNL28QZtfQ_b3-286">
          <mxGeometry width="50" height="50" relative="1" as="geometry">
            <mxPoint x="742.16" y="404.79" as="sourcePoint"/>
            <mxPoint x="704" y="470" as="targetPoint"/>
          </mxGeometry>
        </mxCell>
        <mxCell id="9fpFaIlWNL28QZtfQ_b3-296" value="" style="endArrow=classic;html=1;" edge="1" parent="1">
          <mxGeometry width="50" height="50" relative="1" as="geometry">
            <mxPoint x="682.84" y="510.55999999999995" as="sourcePoint"/>
            <mxPoint x="683.42" y="494" as="targetPoint"/>
            <Array as="points"/>
          </mxGeometry>
        </mxCell>
        <mxCell id="9fpFaIlWNL28QZtfQ_b3-298" value="" style="edgeStyle=elbowEdgeStyle;elbow=horizontal;endArrow=classic;html=1;entryX=0;entryY=0.33;entryDx=0;entryDy=0;entryPerimeter=0;exitX=1;exitY=0.25;exitDx=0;exitDy=0;" edge="1" parent="1" source="9fpFaIlWNL28QZtfQ_b3-128" target="9fpFaIlWNL28QZtfQ_b3-251">
          <mxGeometry width="50" height="50" relative="1" as="geometry">
            <mxPoint x="684" y="582" as="sourcePoint"/>
            <mxPoint x="734" y="532" as="targetPoint"/>
          </mxGeometry>
        </mxCell>
        <mxCell id="9fpFaIlWNL28QZtfQ_b3-299" value="" style="outlineConnect=0;dashed=0;verticalLabelPosition=bottom;verticalAlign=top;align=center;html=1;shape=mxgraph.aws3.bucket;fillColor=#E05243;gradientColor=none;" vertex="1" parent="1">
          <mxGeometry x="817.08" y="380.52" width="20" height="16.54" as="geometry"/>
        </mxCell>
        <mxCell id="9fpFaIlWNL28QZtfQ_b3-300" value="" style="outlineConnect=0;dashed=0;verticalLabelPosition=bottom;verticalAlign=top;align=center;html=1;shape=mxgraph.aws3.athena;fillColor=#F58534;gradientColor=none;" vertex="1" parent="1">
          <mxGeometry x="814.96" y="446.25000000000006" width="19" height="39.29" as="geometry"/>
        </mxCell>
        <mxCell id="9fpFaIlWNL28QZtfQ_b3-303" value="s3" style="text;html=1;strokeColor=none;fillColor=none;align=center;verticalAlign=middle;whiteSpace=wrap;rounded=0;" vertex="1" parent="1">
          <mxGeometry x="815.96" y="400" width="19" height="20" as="geometry"/>
        </mxCell>
        <mxCell id="9fpFaIlWNL28QZtfQ_b3-306" value="Athena" style="text;html=1;strokeColor=none;fillColor=none;align=center;verticalAlign=middle;whiteSpace=wrap;rounded=0;" vertex="1" parent="1">
          <mxGeometry x="804.96" y="479.02" width="44.25" height="20" as="geometry"/>
        </mxCell>
        <mxCell id="9fpFaIlWNL28QZtfQ_b3-307" value="" style="outlineConnect=0;dashed=0;verticalLabelPosition=bottom;verticalAlign=top;align=center;html=1;shape=mxgraph.aws3.quicksight;fillColor=#00B7F4;gradientColor=none;" vertex="1" parent="1">
          <mxGeometry x="812.91" y="520" width="27" height="28" as="geometry"/>
        </mxCell>
        <mxCell id="9fpFaIlWNL28QZtfQ_b3-308" value="Kibana" style="text;html=1;strokeColor=none;fillColor=none;align=center;verticalAlign=middle;whiteSpace=wrap;rounded=0;" vertex="1" parent="1">
          <mxGeometry x="795.24" y="552.38" width="62.34" height="20" as="geometry"/>
        </mxCell>
        <mxCell id="9fpFaIlWNL28QZtfQ_b3-309" value="" style="endArrow=classic;html=1;" edge="1" parent="1">
          <mxGeometry width="50" height="50" relative="1" as="geometry">
            <mxPoint x="826.59" y="418.79" as="sourcePoint"/>
            <mxPoint x="826.59" y="444.79" as="targetPoint"/>
          </mxGeometry>
        </mxCell>
        <mxCell id="9fpFaIlWNL28QZtfQ_b3-310" value="" style="endArrow=classic;html=1;" edge="1" parent="1">
          <mxGeometry width="50" height="50" relative="1" as="geometry">
            <mxPoint x="824.4600000000002" y="494.01" as="sourcePoint"/>
            <mxPoint x="824.4600000000002" y="520.01" as="targetPoint"/>
          </mxGeometry>
        </mxCell>
        <mxCell id="9fpFaIlWNL28QZtfQ_b3-312" value="" style="endArrow=classic;html=1;" edge="1" parent="1">
          <mxGeometry width="50" height="50" relative="1" as="geometry">
            <mxPoint x="789.91" y="387.72" as="sourcePoint"/>
            <mxPoint x="817.08" y="387.26" as="targetPoint"/>
          </mxGeometry>
        </mxCell>
        <mxCell id="9fpFaIlWNL28QZtfQ_b3-322" value="" style="outlineConnect=0;dashed=0;verticalLabelPosition=bottom;verticalAlign=top;align=center;html=1;shape=mxgraph.aws3.mobile_client;fillColor=#D2D3D3;gradientColor=none;" vertex="1" parent="1">
          <mxGeometry x="862.96" y="342" width="24.08" height="30.79" as="geometry"/>
        </mxCell>
        <mxCell id="9fpFaIlWNL28QZtfQ_b3-323" value="Client" style="text;html=1;strokeColor=none;fillColor=none;align=center;verticalAlign=middle;whiteSpace=wrap;rounded=0;" vertex="1" parent="1">
          <mxGeometry x="855" y="371.8" width="40" height="20" as="geometry"/>
        </mxCell>
        <mxCell id="9fpFaIlWNL28QZtfQ_b3-324" value="" style="endArrow=classic;html=1;entryX=0;entryY=0.5;entryDx=0;entryDy=0;entryPerimeter=0;" edge="1" parent="1" target="9fpFaIlWNL28QZtfQ_b3-322">
          <mxGeometry width="50" height="50" relative="1" as="geometry">
            <mxPoint x="703" y="358.79" as="sourcePoint"/>
            <mxPoint x="791" y="358.79" as="targetPoint"/>
          </mxGeometry>
        </mxCell>
        <mxCell id="9fpFaIlWNL28QZtfQ_b3-326" value="" style="edgeStyle=segmentEdgeStyle;endArrow=classic;html=1;entryX=0.5;entryY=1;entryDx=0;entryDy=0;" edge="1" parent="1" target="9fpFaIlWNL28QZtfQ_b3-323">
          <mxGeometry width="50" height="50" relative="1" as="geometry">
            <mxPoint x="839.91" y="540.63" as="sourcePoint"/>
            <mxPoint x="889.91" y="490.63" as="targetPoint"/>
          </mxGeometry>
        </mxCell>
      </root>
    </mxGraphModel>
  </diagram>
</mxfile>
